<svg xmlns="http://www.w3.org/2000/svg" viewBox="0 0 480 360"><defs><linearGradient id="sky" x1="0" y1="0" x2="0" y2="1"><stop offset="0" stop-color="#241d55"/><stop offset="1" stop-color="#4a3f8c"/></linearGradient><radialGradient id="glow" cx=".5" cy=".42" r=".6"><stop offset="0" stop-color="#ffd98a" stop-opacity=".35"/><stop offset="1" stop-color="#ffd98a" stop-opacity="0"/></radialGradient><radialGradient id="vig" cx=".5" cy=".5" r=".75"><stop offset=".62" stop-color="#000" stop-opacity="0"/><stop offset="1" stop-color="#000" stop-opacity=".38"/></radialGradient></defs><rect width="480" height="360" fill="url(#sky)"/><rect width="480" height="360" fill="url(#glow)"/><path d="M0 276 Q 120 236 240 268 T 480 256 V 360 H 0 Z" fill="#1c1745"/><circle cx="294" cy="151" r="1.4" fill="#fff" opacity=".85"/><circle cx="453" cy="118" r="2.4" fill="#fff" opacity=".85"/><circle cx="180" cy="37" r="3.4" fill="#fff" opacity=".85"/><circle cx="51" cy="70" r="1.4" fill="#fff" opacity=".85"/><circle cx="314" cy="151" r="2.4" fill="#fff" opacity=".85"/><circle cx="153" cy="118" r="3.4" fill="#fff" opacity=".85"/><circle cx="280" cy="37" r="1.4" fill="#fff" opacity=".85"/><circle cx="311" cy="70" r="2.4" fill="#fff" opacity=".85"/><circle cx="374" cy="151" r="3.4" fill="#fff" opacity=".85"/><circle cx="133" cy="118" r="1.4" fill="#fff" opacity=".85"/><circle cx="404" cy="60" r="30" fill="#ffe9b0"/><circle cx="394" cy="54" r="6" fill="#f4d47f"/><circle cx="413" cy="69" r="4" fill="#f4d47f"/><rect x="86" y="216" width="308" height="84" rx="20" fill="#7c6bd8" stroke="#221a44" stroke-width="6" stroke-linejoin="round" stroke-linecap="round"/><rect x="70" y="196" width="44" height="110" rx="14" fill="#584a8f" stroke="#221a44" stroke-width="6" stroke-linejoin="round" stroke-linecap="round"/><rect x="366" y="196" width="44" height="110" rx="14" fill="#584a8f" stroke="#221a44" stroke-width="6" stroke-linejoin="round" stroke-linecap="round"/><ellipse cx="150" cy="216" rx="44" ry="20" fill="#fff" stroke="#221a44" stroke-width="5" stroke-linejoin="round" stroke-linecap="round"/><circle cx="170" cy="200" r="22" fill="#ffd9a0" stroke="#221a44" stroke-width="6" stroke-linejoin="round" stroke-linecap="round"/><path d="M160 196 q4 -3 6 0 M176 196 q4 -3 6 0" fill="none" stroke="#221a44" stroke-width="3" stroke-linecap="round"/><path d="M164 208 q6 5 12 0" fill="none" stroke="#221a44" stroke-width="3" stroke-linecap="round"/><path d="M196 190 q100 -18 198 26 v58 q-100 -20 -198 -6 Z" fill="#5ce1c9" stroke="#221a44" stroke-width="6" stroke-linejoin="round" stroke-linecap="round"/><g fill="#fff"><circle cx="230" cy="224" r="4"/><circle cx="268" cy="244" r="4"/><circle cx="306" cy="224" r="4"/><circle cx="344" cy="244" r="4"/><circle cx="382" cy="224" r="4"/></g><text x="104" y="150" font-family="sans-serif" font-size="34" font-weight="bold" fill="#fff" opacity=".9">z z z</text><rect width="480" height="360" fill="url(#vig)"/><rect x="7" y="7" width="466" height="346" rx="24" fill="none" stroke="#ffffff" stroke-opacity=".25" stroke-width="4"/></svg>