<svg xmlns="http://www.w3.org/2000/svg" viewBox="0 0 480 360"><defs><linearGradient id="sky" x1="0" y1="0" x2="0" y2="1"><stop offset="0" stop-color="#a8b8f0"/><stop offset="1" stop-color="#e2e6fc"/></linearGradient><radialGradient id="glow" cx=".5" cy=".42" r=".6"><stop offset="0" stop-color="#ffffff" stop-opacity=".35"/><stop offset="1" stop-color="#ffffff" stop-opacity="0"/></radialGradient><radialGradient id="vig" cx=".5" cy=".5" r=".75"><stop offset=".62" stop-color="#000" stop-opacity="0"/><stop offset="1" stop-color="#000" stop-opacity=".38"/></radialGradient></defs><rect width="480" height="360" fill="url(#sky)"/><rect width="480" height="360" fill="url(#glow)"/><path d="M0 276 Q 120 236 240 268 T 480 256 V 360 H 0 Z" fill="#9fd8b0"/><path d="M240 120 q-30 -34 -58 -6 q-22 24 58 78 q80 -54 58 -78 q-28 -28 -58 6 Z" fill="#ff8fb0" stroke="#221a44" stroke-width="6" stroke-linejoin="round" stroke-linecap="round"/><g><rect x="76" y="232" width="130" height="52" rx="18" fill="#5ca8e1" stroke="#221a44" stroke-width="6" stroke-linejoin="round" stroke-linecap="round"/><rect x="104" y="208" width="72" height="34" rx="12" fill="#8fc6f2" stroke="#221a44" stroke-width="5" stroke-linejoin="round" stroke-linecap="round"/><circle cx="112" cy="290" r="18" fill="#3b3566" stroke="#221a44" stroke-width="5" stroke-linejoin="round" stroke-linecap="round"/><circle cx="176" cy="290" r="18" fill="#3b3566" stroke="#221a44" stroke-width="5" stroke-linejoin="round" stroke-linecap="round"/></g><g><rect x="274" y="232" width="130" height="52" rx="18" fill="#ff9d54" stroke="#221a44" stroke-width="6" stroke-linejoin="round" stroke-linecap="round"/><rect x="304" y="208" width="72" height="34" rx="12" fill="#ffc08a" stroke="#221a44" stroke-width="5" stroke-linejoin="round" stroke-linecap="round"/><circle cx="310" cy="290" r="18" fill="#3b3566" stroke="#221a44" stroke-width="5" stroke-linejoin="round" stroke-linecap="round"/><circle cx="374" cy="290" r="18" fill="#3b3566" stroke="#221a44" stroke-width="5" stroke-linejoin="round" stroke-linecap="round"/></g><line x1="216" y1="258" x2="264" y2="258" stroke="#fff" stroke-width="6" stroke-dasharray="4 12" stroke-linecap="round"/><rect width="480" height="360" fill="url(#vig)"/><rect x="7" y="7" width="466" height="346" rx="24" fill="none" stroke="#ffffff" stroke-opacity=".25" stroke-width="4"/></svg>