<svg xmlns="http://www.w3.org/2000/svg" viewBox="0 0 480 360"><defs><linearGradient id="sky" x1="0" y1="0" x2="0" y2="1"><stop offset="0" stop-color="#7fd2e0"/><stop offset="1" stop-color="#d0f0f7"/></linearGradient><radialGradient id="glow" cx=".5" cy=".42" r=".6"><stop offset="0" stop-color="#ffffff" stop-opacity=".35"/><stop offset="1" stop-color="#ffffff" stop-opacity="0"/></radialGradient><radialGradient id="vig" cx=".5" cy=".5" r=".75"><stop offset=".62" stop-color="#000" stop-opacity="0"/><stop offset="1" stop-color="#000" stop-opacity=".38"/></radialGradient></defs><rect width="480" height="360" fill="url(#sky)"/><rect width="480" height="360" fill="url(#glow)"/><path d="M0 276 Q 120 236 240 268 T 480 256 V 360 H 0 Z" fill="#2f86c9"/><path d="M60 210 a180 180 0 0 1 360 0" fill="none" stroke="#e23b3b" stroke-width="14"/><path d="M60 210 a180 180 0 0 1 360 0" fill="none" stroke="#ff9d54" stroke-width="14"/><path d="M60 210 a180 180 0 0 1 360 0" fill="none" stroke="#ffd254" stroke-width="14"/><path d="M60 210 a180 180 0 0 1 360 0" fill="none" stroke="#8fd06b" stroke-width="14"/><path d="M60 210 a180 180 0 0 1 360 0" fill="none" stroke="#5ca8e1" stroke-width="14"/><path d="M60 210 a180 180 0 0 1 360 0" fill="none" stroke="#c86bb8" stroke-width="14"/><g fill="#ffffff" opacity=".95"><ellipse cx="70" cy="206" rx="41.4" ry="18.0"/><circle cx="52.0" cy="195.2" r="14.4"/><circle cx="77.2" cy="191.6" r="18.0"/></g><g fill="#ffffff" opacity=".95"><ellipse cx="410" cy="206" rx="41.4" ry="18.0"/><circle cx="392.0" cy="195.2" r="14.4"/><circle cx="417.2" cy="191.6" r="18.0"/></g><path d="M110 260 h260 q-10 50 -130 50 t-130 -50 Z" fill="#a4674b" stroke="#221a44" stroke-width="6" stroke-linejoin="round" stroke-linecap="round"/><rect x="180" y="216" width="120" height="46" rx="10" fill="#c2854f" stroke="#221a44" stroke-width="6" stroke-linejoin="round" stroke-linecap="round"/><rect x="222" y="228" width="36" height="24" rx="6" fill="#ffd254" stroke="#221a44" stroke-width="5" stroke-linejoin="round" stroke-linecap="round"/><circle cx="150" cy="248" r="14" fill="#ffcf5c" stroke="#221a44" stroke-width="4" stroke-linejoin="round" stroke-linecap="round"/><circle cx="146" cy="244" r="2.5" fill="#221a44"/><circle cx="330" cy="248" r="14" fill="#b8b8d0" stroke="#221a44" stroke-width="4" stroke-linejoin="round" stroke-linecap="round"/><circle cx="334" cy="244" r="2.5" fill="#221a44"/><path d="M240 150 q10 -12 24 -6 q-4 10 -14 10 q8 8 20 6 q-12 12 -30 2 Z" fill="#fff" stroke="#221a44" stroke-width="4" stroke-linejoin="round" stroke-linecap="round"/><rect width="480" height="360" fill="url(#vig)"/><rect x="7" y="7" width="466" height="346" rx="24" fill="none" stroke="#ffffff" stroke-opacity=".25" stroke-width="4"/></svg>