<svg xmlns="http://www.w3.org/2000/svg" viewBox="0 0 480 360"><defs><linearGradient id="sky" x1="0" y1="0" x2="0" y2="1"><stop offset="0" stop-color="#20305e"/><stop offset="1" stop-color="#3e5a94"/></linearGradient><radialGradient id="glow" cx=".5" cy=".42" r=".6"><stop offset="0" stop-color="#ffd98a" stop-opacity=".35"/><stop offset="1" stop-color="#ffd98a" stop-opacity="0"/></radialGradient><radialGradient id="vig" cx=".5" cy=".5" r=".75"><stop offset=".62" stop-color="#000" stop-opacity="0"/><stop offset="1" stop-color="#000" stop-opacity=".38"/></radialGradient></defs><rect width="480" height="360" fill="url(#sky)"/><rect width="480" height="360" fill="url(#glow)"/><path d="M0 276 Q 120 236 240 268 T 480 256 V 360 H 0 Z" fill="#57381e"/><path d="M20 60 q220 50 440 0" fill="none" stroke="#221a44" stroke-width="5" stroke-linejoin="round" stroke-linecap="round"/><path d="M60 69 l16 28 16 -25 Z" fill="#e23b3b" stroke="#221a44" stroke-width="4"/><path d="M130 75 l16 28 16 -25 Z" fill="#ffd254" stroke="#221a44" stroke-width="4"/><path d="M200 79 l16 28 16 -25 Z" fill="#5ce1c9" stroke="#221a44" stroke-width="4"/><path d="M270 80 l16 28 16 -25 Z" fill="#ff9d54" stroke="#221a44" stroke-width="4"/><path d="M340 76 l16 28 16 -25 Z" fill="#c86bb8" stroke="#221a44" stroke-width="4"/><path d="M410 70 l16 28 16 -25 Z" fill="#8fd06b" stroke="#221a44" stroke-width="4"/><g><path d="M240 210 q-30 30 -12 60 q8 -18 16 -22 q-2 26 16 34 q14 -10 12 -34 q12 10 10 26 q16 -30 -8 -62 q-10 16 -16 18 q0 -22 -18 -20 Z" fill="#ff7a2f" stroke="#221a44" stroke-width="5" stroke-linejoin="round" stroke-linecap="round"/><path d="M200 292 l80 -14 M200 278 l80 14" stroke="#7a4a2b" stroke-width="12" stroke-linecap="round"/></g><g transform="rotate(-16 100 270)"><ellipse cx="100" cy="270" rx="20" ry="38" fill="#ffd254" stroke="#221a44" stroke-width="5" stroke-linejoin="round" stroke-linecap="round"/><path d="M84 296 q16 22 32 0 q-4 18 -16 20 q-12 -2 -16 -20 Z" fill="#8fd06b" stroke="#221a44" stroke-width="4" stroke-linejoin="round" stroke-linecap="round"/></g><g><path d="M380 120 l22 34 -22 30 -22 -30 Z" fill="#c86bb8" stroke="#221a44" stroke-width="5" stroke-linejoin="round" stroke-linecap="round"/><line x1="380" y1="184" x2="380" y2="200" stroke="#221a44" stroke-width="4" stroke-linejoin="round" stroke-linecap="round"/></g><rect width="480" height="360" fill="url(#vig)"/><rect x="7" y="7" width="466" height="346" rx="24" fill="none" stroke="#ffffff" stroke-opacity=".25" stroke-width="4"/></svg>