<svg xmlns="http://www.w3.org/2000/svg" viewBox="0 0 480 360"><defs><linearGradient id="sky" x1="0" y1="0" x2="0" y2="1"><stop offset="0" stop-color="#241d55"/><stop offset="1" stop-color="#4a3f8c"/></linearGradient><radialGradient id="glow" cx=".5" cy=".42" r=".6"><stop offset="0" stop-color="#ffd98a" stop-opacity=".35"/><stop offset="1" stop-color="#ffd98a" stop-opacity="0"/></radialGradient><radialGradient id="vig" cx=".5" cy=".5" r=".75"><stop offset=".62" stop-color="#000" stop-opacity="0"/><stop offset="1" stop-color="#000" stop-opacity=".38"/></radialGradient></defs><rect width="480" height="360" fill="url(#sky)"/><rect width="480" height="360" fill="url(#glow)"/><path d="M0 276 Q 120 236 240 268 T 480 256 V 360 H 0 Z" fill="#1c1745"/><circle cx="294" cy="151" r="1.4" fill="#fff" opacity=".85"/><circle cx="453" cy="118" r="2.4" fill="#fff" opacity=".85"/><circle cx="180" cy="37" r="3.4" fill="#fff" opacity=".85"/><circle cx="51" cy="70" r="1.4" fill="#fff" opacity=".85"/><circle cx="314" cy="151" r="2.4" fill="#fff" opacity=".85"/><circle cx="153" cy="118" r="3.4" fill="#fff" opacity=".85"/><circle cx="280" cy="37" r="1.4" fill="#fff" opacity=".85"/><circle cx="311" cy="70" r="2.4" fill="#fff" opacity=".85"/><circle cx="374" cy="151" r="3.4" fill="#fff" opacity=".85"/><circle cx="133" cy="118" r="1.4" fill="#fff" opacity=".85"/><circle cx="140" cy="37" r="2.4" fill="#fff" opacity=".85"/><circle cx="396" cy="62" r="32" fill="#ffe9b0"/><circle cx="386" cy="56" r="6" fill="#f4d47f"/><circle cx="405" cy="71" r="4" fill="#f4d47f"/><ellipse cx="240" cy="250" rx="120" ry="44" fill="#fff" stroke="#221a44" stroke-width="6" stroke-linejoin="round" stroke-linecap="round"/><path d="M190 210 l16 34 22 -28 22 28 16 -34 8 52 h-92 Z" fill="#ffcf5c" stroke="#221a44" stroke-width="6" stroke-linejoin="round" stroke-linecap="round"/><circle cx="206" cy="206" r="6" fill="#ff6b8a" stroke="#221a44" stroke-width="4" stroke-linejoin="round" stroke-linecap="round"/><circle cx="240" cy="200" r="6" fill="#5ce1c9" stroke="#221a44" stroke-width="4" stroke-linejoin="round" stroke-linecap="round"/><circle cx="274" cy="206" r="6" fill="#5ca8e1" stroke="#221a44" stroke-width="4" stroke-linejoin="round" stroke-linecap="round"/><text x="120" y="150" font-family="sans-serif" font-size="30" font-weight="bold" fill="#fff" opacity=".85">♪</text><text x="330" y="170" font-family="sans-serif" font-size="24" font-weight="bold" fill="#fff" opacity=".7">♫</text><text x="80" y="200" font-family="sans-serif" font-size="22" font-weight="bold" fill="#fff" opacity=".6">z</text><rect width="480" height="360" fill="url(#vig)"/><rect x="7" y="7" width="466" height="346" rx="24" fill="none" stroke="#ffffff" stroke-opacity=".25" stroke-width="4"/></svg>