<svg xmlns="http://www.w3.org/2000/svg" viewBox="0 0 480 360"><defs><linearGradient id="sky" x1="0" y1="0" x2="0" y2="1"><stop offset="0" stop-color="#191540"/><stop offset="1" stop-color="#37307a"/></linearGradient><radialGradient id="glow" cx=".5" cy=".42" r=".6"><stop offset="0" stop-color="#ffd98a" stop-opacity=".35"/><stop offset="1" stop-color="#ffd98a" stop-opacity="0"/></radialGradient><radialGradient id="vig" cx=".5" cy=".5" r=".75"><stop offset=".62" stop-color="#000" stop-opacity="0"/><stop offset="1" stop-color="#000" stop-opacity=".38"/></radialGradient></defs><rect width="480" height="360" fill="url(#sky)"/><rect width="480" height="360" fill="url(#glow)"/><path d="M0 276 Q 120 236 240 268 T 480 256 V 360 H 0 Z" fill="#141133"/><circle cx="294" cy="151" r="1.4" fill="#fff" opacity=".85"/><circle cx="453" cy="118" r="2.4" fill="#fff" opacity=".85"/><circle cx="180" cy="37" r="3.4" fill="#fff" opacity=".85"/><circle cx="51" cy="70" r="1.4" fill="#fff" opacity=".85"/><circle cx="314" cy="151" r="2.4" fill="#fff" opacity=".85"/><circle cx="153" cy="118" r="3.4" fill="#fff" opacity=".85"/><circle cx="280" cy="37" r="1.4" fill="#fff" opacity=".85"/><path d="M60 268 L240 92 L420 268 Z" fill="#2c2358" stroke="#221a44" stroke-width="6" stroke-linejoin="round" stroke-linecap="round"/><path d="M60 268 L240 92 L420 268" fill="none" stroke="#221a44" stroke-width="10" stroke-linejoin="round" stroke-linecap="round"/><circle cx="215" cy="196" r="17" fill="#ffd254" stroke="#221a44" stroke-width="5" stroke-linejoin="round" stroke-linecap="round"/><circle cx="265" cy="196" r="17" fill="#ffd254" stroke="#221a44" stroke-width="5" stroke-linejoin="round" stroke-linecap="round"/><circle cx="215" cy="199" r="7" fill="#221a44"/><circle cx="265" cy="199" r="7" fill="#221a44"/><path d="M228 218 q12 10 24 0 l-12 14 Z" fill="#ff9d54" stroke="#221a44" stroke-width="4" stroke-linejoin="round" stroke-linecap="round"/><path d="M96 322 L196 240 L216 268 L118 336 Z" fill="#fff3c4" opacity=".8"/><rect x="70" y="312" width="52" height="26" rx="10" fill="#5ce1c9" stroke="#221a44" stroke-width="6" stroke-linejoin="round" stroke-linecap="round"/><rect width="480" height="360" fill="url(#vig)"/><rect x="7" y="7" width="466" height="346" rx="24" fill="none" stroke="#ffffff" stroke-opacity=".25" stroke-width="4"/></svg>