<svg xmlns="http://www.w3.org/2000/svg" viewBox="0 0 480 360"><defs><linearGradient id="sky" x1="0" y1="0" x2="0" y2="1"><stop offset="0" stop-color="#3d2472"/><stop offset="1" stop-color="#6b3fa8"/></linearGradient><radialGradient id="glow" cx=".5" cy=".42" r=".6"><stop offset="0" stop-color="#ffd98a" stop-opacity=".35"/><stop offset="1" stop-color="#ffd98a" stop-opacity="0"/></radialGradient><radialGradient id="vig" cx=".5" cy=".5" r=".75"><stop offset=".62" stop-color="#000" stop-opacity="0"/><stop offset="1" stop-color="#000" stop-opacity=".38"/></radialGradient></defs><rect width="480" height="360" fill="url(#sky)"/><rect width="480" height="360" fill="url(#glow)"/><path d="M0 276 Q 120 236 240 268 T 480 256 V 360 H 0 Z" fill="#2c1a54"/><circle cx="294" cy="151" r="1.4" fill="#fff" opacity=".85"/><circle cx="453" cy="118" r="2.4" fill="#fff" opacity=".85"/><circle cx="180" cy="37" r="3.4" fill="#fff" opacity=".85"/><circle cx="51" cy="70" r="1.4" fill="#fff" opacity=".85"/><circle cx="314" cy="151" r="2.4" fill="#fff" opacity=".85"/><circle cx="153" cy="118" r="3.4" fill="#fff" opacity=".85"/><circle cx="280" cy="37" r="1.4" fill="#fff" opacity=".85"/><circle cx="311" cy="70" r="2.4" fill="#fff" opacity=".85"/><circle cx="374" cy="151" r="3.4" fill="#fff" opacity=".85"/><circle cx="400" cy="58" r="26" fill="#ffe9b0"/><circle cx="390" cy="52" r="6" fill="#f4d47f"/><circle cx="409" cy="67" r="4" fill="#f4d47f"/><path d="M120 220 h240 v96 q-120 20 -240 0 Z" fill="#a4674b" stroke="#221a44" stroke-width="6" stroke-linejoin="round" stroke-linecap="round"/><path d="M120 220 q120 -80 240 0 l-18 26 q-102 -60 -204 0 Z" fill="#c2854f" stroke="#221a44" stroke-width="6" stroke-linejoin="round" stroke-linecap="round"/><rect x="222" y="252" width="36" height="30" rx="8" fill="#ffcf5c" stroke="#221a44" stroke-width="5" stroke-linejoin="round" stroke-linecap="round"/><path d="M180 208 l8 -20 8 20 20 4 -20 8 -8 20 -8 -20 -20 -8 Z" fill="#fff" opacity=".95"/><circle cx="160" cy="170" r="20" fill="#ff6b8a" stroke="#221a44" stroke-width="5" stroke-linejoin="round" stroke-linecap="round"/><path d="M148 170 a12 12 0 0 1 24 0" fill="#fff" stroke="#221a44" stroke-width="4"/><g transform="rotate(14 320 150)"><rect x="304" y="120" width="32" height="52" rx="14" fill="#5ca8e1" stroke="#221a44" stroke-width="5" stroke-linejoin="round" stroke-linecap="round"/><path d="M320 108 l12 16 h-24 Z" fill="#ff9d54" stroke="#221a44" stroke-width="4" stroke-linejoin="round" stroke-linecap="round"/><path d="M308 172 l-8 16 M332 172 l8 16" fill="none" stroke="#221a44" stroke-width="5" stroke-linejoin="round" stroke-linecap="round"/></g><g><circle cx="240" cy="150" r="17" fill="#c2854f" stroke="#221a44" stroke-width="5" stroke-linejoin="round" stroke-linecap="round"/><circle cx="228" cy="138" r="7" fill="#c2854f" stroke="#221a44" stroke-width="3"/><circle cx="252" cy="138" r="7" fill="#c2854f" stroke="#221a44" stroke-width="3"/><circle cx="236" cy="148" r="2.5" fill="#221a44"/><circle cx="244" cy="148" r="2.5" fill="#221a44"/><ellipse cx="240" cy="157" rx="6" ry="4" fill="#eec394"/></g><rect width="480" height="360" fill="url(#vig)"/><rect x="7" y="7" width="466" height="346" rx="24" fill="none" stroke="#ffffff" stroke-opacity=".25" stroke-width="4"/></svg>