<svg xmlns="http://www.w3.org/2000/svg" viewBox="0 0 480 360"><defs><linearGradient id="sky" x1="0" y1="0" x2="0" y2="1"><stop offset="0" stop-color="#b3e0c9"/><stop offset="1" stop-color="#e7f6e2"/></linearGradient><radialGradient id="glow" cx=".5" cy=".42" r=".6"><stop offset="0" stop-color="#ffffff" stop-opacity=".35"/><stop offset="1" stop-color="#ffffff" stop-opacity="0"/></radialGradient><radialGradient id="vig" cx=".5" cy=".5" r=".75"><stop offset=".62" stop-color="#000" stop-opacity="0"/><stop offset="1" stop-color="#000" stop-opacity=".38"/></radialGradient></defs><rect width="480" height="360" fill="url(#sky)"/><rect width="480" height="360" fill="url(#glow)"/><path d="M0 276 Q 120 236 240 268 T 480 256 V 360 H 0 Z" fill="#7fbf8e"/><g fill="#ffffff" opacity=".95"><ellipse cx="110" cy="58" rx="41.4" ry="18.0"/><circle cx="92.0" cy="47.2" r="14.4"/><circle cx="117.2" cy="43.6" r="18.0"/></g><g><ellipse cx="150" cy="266" rx="92" ry="48" fill="#5ca8e1" stroke="#221a44" stroke-width="6" stroke-linejoin="round" stroke-linecap="round"/><path d="M212 240 q36 -70 26 -140 q-2 -24 26 -24 t26 26 q0 20 -18 24 q-6 66 -20 114 Z" fill="#5ca8e1" stroke="#221a44" stroke-width="6" stroke-linejoin="round" stroke-linecap="round"/><circle cx="252" cy="92" r="4" fill="#221a44"/></g><g><ellipse cx="352" cy="286" rx="46" ry="28" fill="#8fc6f2" stroke="#221a44" stroke-width="6" stroke-linejoin="round" stroke-linecap="round"/><path d="M384 272 q14 -26 10 -50 q0 -14 14 -14 t14 16 q0 12 -10 14 q-2 20 -6 34 Z" fill="#8fc6f2" stroke="#221a44" stroke-width="5" stroke-linejoin="round" stroke-linecap="round"/><circle cx="404" cy="216" r="3.5" fill="#221a44"/></g><path d="M300 180 q-12 -14 -24 -2 q-9 10 24 32 q33 -22 24 -32 q-12 -12 -24 2 Z" fill="#ff8fb0" stroke="#221a44" stroke-width="4" stroke-linejoin="round" stroke-linecap="round"/><rect width="480" height="360" fill="url(#vig)"/><rect x="7" y="7" width="466" height="346" rx="24" fill="none" stroke="#ffffff" stroke-opacity=".25" stroke-width="4"/></svg>