<svg xmlns="http://www.w3.org/2000/svg" viewBox="0 0 480 360"><defs><linearGradient id="sky" x1="0" y1="0" x2="0" y2="1"><stop offset="0" stop-color="#191540"/><stop offset="1" stop-color="#332a6e"/></linearGradient><radialGradient id="glow" cx=".5" cy=".42" r=".6"><stop offset="0" stop-color="#ffd98a" stop-opacity=".35"/><stop offset="1" stop-color="#ffd98a" stop-opacity="0"/></radialGradient><radialGradient id="vig" cx=".5" cy=".5" r=".75"><stop offset=".62" stop-color="#000" stop-opacity="0"/><stop offset="1" stop-color="#000" stop-opacity=".38"/></radialGradient></defs><rect width="480" height="360" fill="url(#sky)"/><rect width="480" height="360" fill="url(#glow)"/><path d="M0 276 Q 120 236 240 268 T 480 256 V 360 H 0 Z" fill="#14202e"/><circle cx="294" cy="151" r="1.4" fill="#fff" opacity=".85"/><circle cx="453" cy="118" r="2.4" fill="#fff" opacity=".85"/><circle cx="180" cy="37" r="3.4" fill="#fff" opacity=".85"/><circle cx="51" cy="70" r="1.4" fill="#fff" opacity=".85"/><circle cx="314" cy="151" r="2.4" fill="#fff" opacity=".85"/><circle cx="153" cy="118" r="3.4" fill="#fff" opacity=".85"/><circle cx="280" cy="37" r="1.4" fill="#fff" opacity=".85"/><circle cx="311" cy="70" r="2.4" fill="#fff" opacity=".85"/><circle cx="374" cy="151" r="3.4" fill="#fff" opacity=".85"/><circle cx="133" cy="118" r="1.4" fill="#fff" opacity=".85"/><path d="M40 260 q60 -60 120 -20 t120 -20 t140 -30" fill="none" stroke="#ffd254" stroke-width="16" stroke-linecap="round" opacity=".45"/><circle cx="40" cy="260" r="10" fill="#ffe9a0"/><circle cx="80" cy="236" r="9" fill="#ffe9a0"/><circle cx="120" cy="228" r="10" fill="#ffe9a0"/><circle cx="160" cy="232" r="9" fill="#ffe9a0"/><circle cx="200" cy="240" r="10" fill="#ffe9a0"/><circle cx="240" cy="228" r="9" fill="#ffe9a0"/><circle cx="280" cy="214" r="10" fill="#ffe9a0"/><circle cx="320" cy="212" r="9" fill="#ffe9a0"/><circle cx="360" cy="200" r="10" fill="#ffe9a0"/><circle cx="400" cy="192" r="9" fill="#ffe9a0"/><circle cx="436" cy="184" r="11" fill="#ffe9a0"/><circle cx="436" cy="184" r="4" fill="#221a44"/><path d="M60 320 q10 -30 4 -44 M100 322 q12 -34 4 -50 M420 320 q-10 -28 -4 -44" stroke="#2e9e8f" stroke-width="8" fill="none" stroke-linecap="round"/><rect width="480" height="360" fill="url(#vig)"/><rect x="7" y="7" width="466" height="346" rx="24" fill="none" stroke="#ffffff" stroke-opacity=".25" stroke-width="4"/></svg>