<svg xmlns="http://www.w3.org/2000/svg" viewBox="0 0 480 360"><defs><linearGradient id="sky" x1="0" y1="0" x2="0" y2="1"><stop offset="0" stop-color="#8fd06b"/><stop offset="1" stop-color="#d9f0a3"/></linearGradient><radialGradient id="glow" cx=".5" cy=".42" r=".6"><stop offset="0" stop-color="#f4ffc9" stop-opacity=".35"/><stop offset="1" stop-color="#f4ffc9" stop-opacity="0"/></radialGradient><radialGradient id="vig" cx=".5" cy=".5" r=".75"><stop offset=".62" stop-color="#000" stop-opacity="0"/><stop offset="1" stop-color="#000" stop-opacity=".38"/></radialGradient></defs><rect width="480" height="360" fill="url(#sky)"/><rect width="480" height="360" fill="url(#glow)"/><path d="M0 276 Q 120 236 240 268 T 480 256 V 360 H 0 Z" fill="#c9a86b"/><g fill="#ffffff" opacity=".95"><ellipse cx="100" cy="56" rx="36.800000000000004" ry="16.0"/><circle cx="84.0" cy="46.4" r="12.8"/><circle cx="106.4" cy="43.2" r="16.0"/></g><g transform="rotate(-5 220 200)"><path d="M120 130 h200 v120 q-30 20 -60 0 q-24 18 -50 4 q-30 16 -60 -6 q-20 -30 -30 -118 Z" fill="#f7e2b0" stroke="#221a44" stroke-width="6" stroke-linejoin="round" stroke-linecap="round"/><path d="M160 220 q40 -40 90 -20 t70 -36" fill="none" stroke="#c2543a" stroke-width="6" stroke-dasharray="2 14" stroke-linecap="round"/><path d="M290 160 l20 20 M310 160 l-20 20" stroke="#c2543a" stroke-width="10" stroke-linecap="round"/><circle cx="150" cy="252" r="16" fill="#8fd06b"/><circle cx="196" cy="260" r="12" fill="#8fd06b"/></g><g><ellipse cx="390" cy="230" rx="26" ry="40" fill="#e23b3b" stroke="#221a44" stroke-width="5" stroke-linejoin="round" stroke-linecap="round"/><circle cx="390" cy="188" r="18" fill="#e23b3b" stroke="#221a44" stroke-width="5" stroke-linejoin="round" stroke-linecap="round"/><path d="M402 184 q14 2 10 12 l-12 -2 Z" fill="#ffcf5c" stroke="#221a44" stroke-width="4" stroke-linejoin="round" stroke-linecap="round"/><circle cx="386" cy="182" r="4" fill="#fff"/><circle cx="387" cy="183" r="2" fill="#221a44"/><path d="M376 240 q-16 24 -4 40" fill="none" stroke="#2e9e5f" stroke-width="10" stroke-linecap="round"/></g><rect width="480" height="360" fill="url(#vig)"/><rect x="7" y="7" width="466" height="346" rx="24" fill="none" stroke="#ffffff" stroke-opacity=".25" stroke-width="4"/></svg>