<svg xmlns="http://www.w3.org/2000/svg" viewBox="0 0 480 360"><defs><linearGradient id="sky" x1="0" y1="0" x2="0" y2="1"><stop offset="0" stop-color="#232a68"/><stop offset="1" stop-color="#4a3f9d"/></linearGradient><radialGradient id="glow" cx=".5" cy=".42" r=".6"><stop offset="0" stop-color="#ffd98a" stop-opacity=".35"/><stop offset="1" stop-color="#ffd98a" stop-opacity="0"/></radialGradient><radialGradient id="vig" cx=".5" cy=".5" r=".75"><stop offset=".62" stop-color="#000" stop-opacity="0"/><stop offset="1" stop-color="#000" stop-opacity=".38"/></radialGradient></defs><rect width="480" height="360" fill="url(#sky)"/><rect width="480" height="360" fill="url(#glow)"/><path d="M0 276 Q 120 236 240 268 T 480 256 V 360 H 0 Z" fill="#1b1f52"/><circle cx="294" cy="151" r="1.4" fill="#fff" opacity=".85"/><circle cx="453" cy="118" r="2.4" fill="#fff" opacity=".85"/><circle cx="180" cy="37" r="3.4" fill="#fff" opacity=".85"/><circle cx="51" cy="70" r="1.4" fill="#fff" opacity=".85"/><circle cx="314" cy="151" r="2.4" fill="#fff" opacity=".85"/><circle cx="153" cy="118" r="3.4" fill="#fff" opacity=".85"/><circle cx="280" cy="37" r="1.4" fill="#fff" opacity=".85"/><circle cx="311" cy="70" r="2.4" fill="#fff" opacity=".85"/><circle cx="374" cy="151" r="3.4" fill="#fff" opacity=".85"/><circle cx="133" cy="118" r="1.4" fill="#fff" opacity=".85"/><circle cx="140" cy="37" r="2.4" fill="#fff" opacity=".85"/><circle cx="404" cy="64" r="36" fill="#ffe9b0"/><circle cx="394" cy="58" r="6" fill="#f4d47f"/><circle cx="413" cy="73" r="4" fill="#f4d47f"/><g fill="#2c2760"><rect x="30" y="238" width="60" height="80" rx="6"/><rect x="380" y="248" width="70" height="72" rx="6"/></g><g fill="#ffd254"><rect x="44" y="252" width="12" height="12"/><rect x="66" y="274" width="12" height="12"/><rect x="398" y="262" width="12" height="12"/></g><g><path d="M240 188 q70 6 96 62 q-60 -14 -96 -24 Z" fill="#ff6b8a" stroke="#221a44" stroke-width="6" stroke-linejoin="round" stroke-linecap="round"/><circle cx="216" cy="150" r="30" fill="#ffd9a0" stroke="#221a44" stroke-width="6" stroke-linejoin="round" stroke-linecap="round"/><path d="M196 142 h40 v10 q-20 8 -40 0 Z" fill="#5ca8e1" stroke="#221a44" stroke-width="4" stroke-linejoin="round" stroke-linecap="round"/><rect x="192" y="182" width="48" height="74" rx="16" fill="#5ca8e1" stroke="#221a44" stroke-width="6" stroke-linejoin="round" stroke-linecap="round"/><path d="M198 256 l-8 44 M234 256 l8 44 M192 200 l-30 26 M240 200 l30 18" fill="none" stroke="#221a44" stroke-width="11" stroke-linejoin="round" stroke-linecap="round"/><path d="M206 208 l10 12 14 -4 -4 14 12 10 -14 4 -4 14 -10 -12 -14 4 4 -14 -12 -10 14 -4 Z" fill="#ffcf5c" stroke="#221a44" stroke-width="3"/></g><rect width="480" height="360" fill="url(#vig)"/><rect x="7" y="7" width="466" height="346" rx="24" fill="none" stroke="#ffffff" stroke-opacity=".25" stroke-width="4"/></svg>