<svg xmlns="http://www.w3.org/2000/svg" viewBox="0 0 480 360"><defs><linearGradient id="sky" x1="0" y1="0" x2="0" y2="1"><stop offset="0" stop-color="#251a4e"/><stop offset="1" stop-color="#4a3a80"/></linearGradient><radialGradient id="glow" cx=".5" cy=".42" r=".6"><stop offset="0" stop-color="#ffd98a" stop-opacity=".35"/><stop offset="1" stop-color="#ffd98a" stop-opacity="0"/></radialGradient><radialGradient id="vig" cx=".5" cy=".5" r=".75"><stop offset=".62" stop-color="#000" stop-opacity="0"/><stop offset="1" stop-color="#000" stop-opacity=".38"/></radialGradient></defs><rect width="480" height="360" fill="url(#sky)"/><rect width="480" height="360" fill="url(#glow)"/><path d="M0 276 Q 120 236 240 268 T 480 256 V 360 H 0 Z" fill="#1c1440"/><circle cx="294" cy="151" r="1.4" fill="#fff" opacity=".85"/><circle cx="453" cy="118" r="2.4" fill="#fff" opacity=".85"/><circle cx="180" cy="37" r="3.4" fill="#fff" opacity=".85"/><circle cx="51" cy="70" r="1.4" fill="#fff" opacity=".85"/><circle cx="314" cy="151" r="2.4" fill="#fff" opacity=".85"/><circle cx="153" cy="118" r="3.4" fill="#fff" opacity=".85"/><circle cx="280" cy="37" r="1.4" fill="#fff" opacity=".85"/><circle cx="311" cy="70" r="2.4" fill="#fff" opacity=".85"/><circle cx="374" cy="151" r="3.4" fill="#fff" opacity=".85"/><circle cx="404" cy="58" r="30" fill="#ffe9b0"/><circle cx="394" cy="52" r="6" fill="#f4d47f"/><circle cx="413" cy="67" r="4" fill="#f4d47f"/><path d="M120 300 V190 L230 120 L340 190 V300 Z" fill="#3a2f63" stroke="#221a44" stroke-width="6" stroke-linejoin="round" stroke-linecap="round"/><path d="M96 196 L230 108 L364 196 L344 216 L230 138 L116 216 Z" fill="#584a8f" stroke="#221a44" stroke-width="6" stroke-linejoin="round" stroke-linecap="round"/><rect x="205" y="238" width="50" height="62" rx="6" fill="#241c4a" stroke="#221a44" stroke-width="6" stroke-linejoin="round" stroke-linecap="round"/><rect x="148" y="210" width="40" height="40" rx="6" fill="#ffd254" stroke="#221a44" stroke-width="6" stroke-linejoin="round" stroke-linecap="round"/><rect x="272" y="210" width="40" height="40" rx="6" fill="#241c4a" stroke="#221a44" stroke-width="6" stroke-linejoin="round" stroke-linecap="round"/><g><line x1="86" y1="308" x2="86" y2="268" stroke="#2e7d4f" stroke-width="6"/><circle cx="86" cy="258" r="16" fill="#ffcf5c" stroke="#221a44" stroke-width="5" stroke-linejoin="round" stroke-linecap="round"/><circle cx="86" cy="258" r="6" fill="#8a5a2b"/></g><g><line x1="396" y1="308" x2="396" y2="268" stroke="#2e7d4f" stroke-width="6"/><circle cx="396" cy="258" r="16" fill="#ffcf5c" stroke="#221a44" stroke-width="5" stroke-linejoin="round" stroke-linecap="round"/><circle cx="396" cy="258" r="6" fill="#8a5a2b"/></g><rect width="480" height="360" fill="url(#vig)"/><rect x="7" y="7" width="466" height="346" rx="24" fill="none" stroke="#ffffff" stroke-opacity=".25" stroke-width="4"/></svg>