<svg xmlns="http://www.w3.org/2000/svg" viewBox="0 0 480 360"><defs><linearGradient id="sky" x1="0" y1="0" x2="0" y2="1"><stop offset="0" stop-color="#8fd06b"/><stop offset="1" stop-color="#d9f0a3"/></linearGradient><radialGradient id="glow" cx=".5" cy=".42" r=".6"><stop offset="0" stop-color="#f4ffc9" stop-opacity=".35"/><stop offset="1" stop-color="#f4ffc9" stop-opacity="0"/></radialGradient><radialGradient id="vig" cx=".5" cy=".5" r=".75"><stop offset=".62" stop-color="#000" stop-opacity="0"/><stop offset="1" stop-color="#000" stop-opacity=".38"/></radialGradient></defs><rect width="480" height="360" fill="url(#sky)"/><rect width="480" height="360" fill="url(#glow)"/><path d="M0 276 Q 120 236 240 268 T 480 256 V 360 H 0 Z" fill="#57803f"/><g fill="#ffffff" opacity=".95"><ellipse cx="380" cy="52" rx="32.199999999999996" ry="14.0"/><circle cx="366.0" cy="43.6" r="11.2"/><circle cx="385.6" cy="40.8" r="14.0"/></g><path d="M80 220 q80 -80 200 -40 q-30 90 -160 80 q-30 -4 -40 -40 Z" fill="#3f9d5f" stroke="#221a44" stroke-width="6" stroke-linejoin="round" stroke-linecap="round"/><path d="M100 236 q80 -40 170 -44" fill="none" stroke="#221a44" stroke-width="4" stroke-linejoin="round" stroke-linecap="round"/><g><circle cx="120" cy="300" r="8" fill="#7a4a2b"/><circle cx="131" cy="296" r="5" fill="#7a4a2b"/></g><g><circle cx="174" cy="300" r="8" fill="#7a4a2b"/><circle cx="185" cy="296" r="5" fill="#7a4a2b"/></g><g><circle cx="228" cy="300" r="8" fill="#7a4a2b"/><circle cx="239" cy="296" r="5" fill="#7a4a2b"/></g><g><circle cx="282" cy="300" r="8" fill="#7a4a2b"/><circle cx="293" cy="296" r="5" fill="#7a4a2b"/></g><g><circle cx="336" cy="300" r="8" fill="#7a4a2b"/><circle cx="347" cy="296" r="5" fill="#7a4a2b"/></g><text x="350" y="160" font-family="sans-serif" font-size="52" font-weight="bold" fill="#ffcf5c" stroke="#221a44" stroke-width="2">♪</text><text x="396" y="120" font-family="sans-serif" font-size="36" font-weight="bold" fill="#ff9d54">♫</text><rect width="480" height="360" fill="url(#vig)"/><rect x="7" y="7" width="466" height="346" rx="24" fill="none" stroke="#ffffff" stroke-opacity=".25" stroke-width="4"/></svg>