<svg xmlns="http://www.w3.org/2000/svg" viewBox="0 0 480 360"><defs><linearGradient id="sky" x1="0" y1="0" x2="0" y2="1"><stop offset="0" stop-color="#a8dcc0"/><stop offset="1" stop-color="#e7f6e2"/></linearGradient><radialGradient id="glow" cx=".5" cy=".42" r=".6"><stop offset="0" stop-color="#ffffff" stop-opacity=".35"/><stop offset="1" stop-color="#ffffff" stop-opacity="0"/></radialGradient><radialGradient id="vig" cx=".5" cy=".5" r=".75"><stop offset=".62" stop-color="#000" stop-opacity="0"/><stop offset="1" stop-color="#000" stop-opacity=".38"/></radialGradient></defs><rect width="480" height="360" fill="url(#sky)"/><rect width="480" height="360" fill="url(#glow)"/><path d="M0 276 Q 120 236 240 268 T 480 256 V 360 H 0 Z" fill="#8fd06b"/><g fill="#ffffff" opacity=".95"><ellipse cx="100" cy="56" rx="41.4" ry="18.0"/><circle cx="82.0" cy="45.2" r="14.4"/><circle cx="107.2" cy="41.6" r="18.0"/></g><ellipse cx="300" cy="230" rx="70" ry="90" fill="#c86bb8" stroke="#221a44" stroke-width="6" stroke-linejoin="round" stroke-linecap="round"/><path d="M236 218 q32 -20 64 0 t64 0" fill="none" stroke="#ffd254" stroke-width="10"/><path d="M240 254 q30 20 60 0 t60 0" fill="none" stroke="#5ce1c9" stroke-width="10"/><circle cx="300" cy="176" r="9" fill="#fff"/><g><ellipse cx="150" cy="180" rx="16" ry="52" fill="#fff" stroke="#221a44" stroke-width="5" stroke-linejoin="round" stroke-linecap="round"/><ellipse cx="150" cy="186" rx="7" ry="36" fill="#ffb6c9"/><ellipse cx="190" cy="170" rx="16" ry="52" fill="#fff" stroke="#221a44" stroke-width="5" stroke-linejoin="round" stroke-linecap="round"/><ellipse cx="190" cy="176" rx="7" ry="36" fill="#ffb6c9"/><circle cx="170" cy="252" r="42" fill="#fff" stroke="#221a44" stroke-width="5" stroke-linejoin="round" stroke-linecap="round"/><circle cx="158" cy="246" r="4" fill="#221a44"/><circle cx="182" cy="246" r="4" fill="#221a44"/><ellipse cx="170" cy="258" rx="6" ry="4" fill="#ffb6c9"/><path d="M164 266 q6 5 12 0 M155 262 l-16 4 M155 268 l-16 2 M185 262 l16 4 M185 268 l16 2" fill="none" stroke="#221a44" stroke-width="3" stroke-linecap="round"/></g><rect width="480" height="360" fill="url(#vig)"/><rect x="7" y="7" width="466" height="346" rx="24" fill="none" stroke="#ffffff" stroke-opacity=".25" stroke-width="4"/></svg>