<svg xmlns="http://www.w3.org/2000/svg" viewBox="0 0 480 360"><defs><linearGradient id="sky" x1="0" y1="0" x2="0" y2="1"><stop offset="0" stop-color="#b3e0c9"/><stop offset="1" stop-color="#e7f6e2"/></linearGradient><radialGradient id="glow" cx=".5" cy=".42" r=".6"><stop offset="0" stop-color="#ffffff" stop-opacity=".35"/><stop offset="1" stop-color="#ffffff" stop-opacity="0"/></radialGradient><radialGradient id="vig" cx=".5" cy=".5" r=".75"><stop offset=".62" stop-color="#000" stop-opacity="0"/><stop offset="1" stop-color="#000" stop-opacity=".38"/></radialGradient></defs><rect width="480" height="360" fill="url(#sky)"/><rect width="480" height="360" fill="url(#glow)"/><path d="M0 276 Q 120 236 240 268 T 480 256 V 360 H 0 Z" fill="#7fbf8e"/><g fill="#ffffff" opacity=".95"><ellipse cx="110" cy="60" rx="36.800000000000004" ry="16.0"/><circle cx="94.0" cy="50.4" r="12.8"/><circle cx="116.4" cy="47.2" r="16.0"/></g><g><ellipse cx="230" cy="252" rx="110" ry="56" fill="#8fd06b" stroke="#221a44" stroke-width="6" stroke-linejoin="round" stroke-linecap="round"/><path d="M310 232 q26 -60 18 -110 q-2 -26 26 -26 t26 28 q2 22 -18 26 q-10 60 -14 92 Z" fill="#8fd06b" stroke="#221a44" stroke-width="6" stroke-linejoin="round" stroke-linecap="round"/><circle cx="352" cy="112" r="5" fill="#221a44"/><path d="M362 128 q10 6 18 2" fill="none" stroke="#221a44" stroke-width="4" stroke-linejoin="round" stroke-linecap="round"/><g fill="#5aa843"><circle cx="170" cy="238" r="9"/><circle cx="214" cy="256" r="9"/><circle cx="258" cy="238" r="9"/><circle cx="302" cy="256" r="9"/></g><path d="M136 276 q-24 10 -36 30 M200 300 v26 M268 300 v26" fill="none" stroke="#221a44" stroke-width="10" stroke-linejoin="round" stroke-linecap="round"/></g><g transform="rotate(-6 92 150)"><rect x="66" y="176" width="52" height="14" rx="6" fill="#ffcf5c" stroke="#221a44" stroke-width="5" stroke-linejoin="round" stroke-linecap="round"/><path d="M76 176 q-20 -14 -16 -50 h64 q4 36 -16 50 Z" fill="#ffcf5c" stroke="#221a44" stroke-width="5" stroke-linejoin="round" stroke-linecap="round"/><path d="M92 136 l7 14 16 2 -11 11 2 16 -14 -8 -14 8 2 -16 -11 -11 16 -2 Z" fill="#fff" stroke="#221a44" stroke-width="3"/></g><rect width="480" height="360" fill="url(#vig)"/><rect x="7" y="7" width="466" height="346" rx="24" fill="none" stroke="#ffffff" stroke-opacity=".25" stroke-width="4"/></svg>