<svg xmlns="http://www.w3.org/2000/svg" viewBox="0 0 480 360"><defs><linearGradient id="sky" x1="0" y1="0" x2="0" y2="1"><stop offset="0" stop-color="#191540"/><stop offset="1" stop-color="#332a6e"/></linearGradient><radialGradient id="glow" cx=".5" cy=".42" r=".6"><stop offset="0" stop-color="#ffd98a" stop-opacity=".35"/><stop offset="1" stop-color="#ffd98a" stop-opacity="0"/></radialGradient><radialGradient id="vig" cx=".5" cy=".5" r=".75"><stop offset=".62" stop-color="#000" stop-opacity="0"/><stop offset="1" stop-color="#000" stop-opacity=".38"/></radialGradient></defs><rect width="480" height="360" fill="url(#sky)"/><rect width="480" height="360" fill="url(#glow)"/><path d="M0 276 Q 120 236 240 268 T 480 256 V 360 H 0 Z" fill="#141133"/><circle cx="294" cy="151" r="1.4" fill="#fff" opacity=".85"/><circle cx="453" cy="118" r="2.4" fill="#fff" opacity=".85"/><circle cx="180" cy="37" r="3.4" fill="#fff" opacity=".85"/><circle cx="51" cy="70" r="1.4" fill="#fff" opacity=".85"/><circle cx="314" cy="151" r="2.4" fill="#fff" opacity=".85"/><circle cx="153" cy="118" r="3.4" fill="#fff" opacity=".85"/><circle cx="280" cy="37" r="1.4" fill="#fff" opacity=".85"/><circle cx="311" cy="70" r="2.4" fill="#fff" opacity=".85"/><circle cx="374" cy="151" r="3.4" fill="#fff" opacity=".85"/><circle cx="133" cy="118" r="1.4" fill="#fff" opacity=".85"/><circle cx="140" cy="37" r="2.4" fill="#fff" opacity=".85"/><path d="M120 240 q120 -40 250 -60 q-30 30 -60 40 q40 4 90 -6 q-60 44 -160 50 Z" fill="#ffe9b0" opacity=".5"/><circle cx="150" cy="230" r="52" fill="#ffe9b0" stroke="#221a44" stroke-width="6" stroke-linejoin="round" stroke-linecap="round"/><path d="M132 226 q6 -6 12 0 M166 226 q6 -6 12 0" fill="none" stroke="#221a44" stroke-width="4" stroke-linejoin="round" stroke-linecap="round"/><path d="M142 250 q10 8 22 0" fill="none" stroke="#221a44" stroke-width="4" stroke-linejoin="round" stroke-linecap="round"/><text x="210" y="160" font-family="sans-serif" font-size="34" font-weight="bold" fill="#fff" opacity=".9">z</text><text x="240" y="130" font-family="sans-serif" font-size="26" font-weight="bold" fill="#fff" opacity=".7">z</text><text x="264" y="106" font-family="sans-serif" font-size="20" font-weight="bold" fill="#fff" opacity=".5">z</text><rect width="480" height="360" fill="url(#vig)"/><rect x="7" y="7" width="466" height="346" rx="24" fill="none" stroke="#ffffff" stroke-opacity=".25" stroke-width="4"/></svg>