<svg xmlns="http://www.w3.org/2000/svg" viewBox="0 0 480 360"><defs><linearGradient id="sky" x1="0" y1="0" x2="0" y2="1"><stop offset="0" stop-color="#ffd280"/><stop offset="1" stop-color="#ffefb0"/></linearGradient><radialGradient id="glow" cx=".5" cy=".42" r=".6"><stop offset="0" stop-color="#fff2c9" stop-opacity=".35"/><stop offset="1" stop-color="#fff2c9" stop-opacity="0"/></radialGradient><radialGradient id="vig" cx=".5" cy=".5" r=".75"><stop offset=".62" stop-color="#000" stop-opacity="0"/><stop offset="1" stop-color="#000" stop-opacity=".38"/></radialGradient></defs><rect width="480" height="360" fill="url(#sky)"/><rect width="480" height="360" fill="url(#glow)"/><path d="M0 276 Q 120 236 240 268 T 480 256 V 360 H 0 Z" fill="#3f9d5f"/><g fill="#ffffff" opacity=".95"><ellipse cx="380" cy="56" rx="36.800000000000004" ry="16.0"/><circle cx="364.0" cy="46.4" r="12.8"/><circle cx="386.4" cy="43.2" r="16.0"/></g><line x1="404" y1="300" x2="404" y2="150" stroke="#221a44" stroke-width="7" stroke-linejoin="round" stroke-linecap="round"/><g><rect x="404" y="150" width="16" height="16" fill="#221a44"/><rect x="420" y="150" width="16" height="16" fill="#fff"/><rect x="436" y="150" width="16" height="16" fill="#221a44"/><rect x="404" y="166" width="16" height="16" fill="#fff"/><rect x="420" y="166" width="16" height="16" fill="#221a44"/><rect x="436" y="166" width="16" height="16" fill="#fff"/><rect x="404" y="182" width="16" height="16" fill="#221a44"/><rect x="420" y="182" width="16" height="16" fill="#fff"/><rect x="436" y="182" width="16" height="16" fill="#221a44"/></g><g><ellipse cx="150" cy="250" rx="80" ry="46" fill="#7c6bd8" stroke="#221a44" stroke-width="6" stroke-linejoin="round" stroke-linecap="round"/><circle cx="222" cy="212" r="26" fill="#7c6bd8" stroke="#221a44" stroke-width="6" stroke-linejoin="round" stroke-linecap="round"/><circle cx="230" cy="206" r="5" fill="#221a44"/><path d="M90 268 l-24 20 M140 292 l-8 24 M190 288 l10 24" fill="none" stroke="#221a44" stroke-width="9" stroke-linejoin="round" stroke-linecap="round"/></g><g><ellipse cx="300" cy="266" rx="62" ry="36" fill="#ff9d54" stroke="#221a44" stroke-width="6" stroke-linejoin="round" stroke-linecap="round"/><circle cx="352" cy="238" r="20" fill="#ff9d54" stroke="#221a44" stroke-width="6" stroke-linejoin="round" stroke-linecap="round"/><circle cx="358" cy="234" r="4" fill="#221a44"/><path d="M260 284 l-18 18 M330 296 l6 18" fill="none" stroke="#221a44" stroke-width="8" stroke-linejoin="round" stroke-linecap="round"/></g><g stroke="#fff" stroke-width="6" stroke-linecap="round" opacity=".8"><line x1="30" y1="230" x2="80" y2="230"/><line x1="20" y1="256" x2="66" y2="256"/></g><rect width="480" height="360" fill="url(#vig)"/><rect x="7" y="7" width="466" height="346" rx="24" fill="none" stroke="#ffffff" stroke-opacity=".25" stroke-width="4"/></svg>