<svg xmlns="http://www.w3.org/2000/svg" viewBox="0 0 480 360"><defs><linearGradient id="sky" x1="0" y1="0" x2="0" y2="1"><stop offset="0" stop-color="#8fd06b"/><stop offset="1" stop-color="#d9f0a3"/></linearGradient><radialGradient id="glow" cx=".5" cy=".42" r=".6"><stop offset="0" stop-color="#f4ffc9" stop-opacity=".35"/><stop offset="1" stop-color="#f4ffc9" stop-opacity="0"/></radialGradient><radialGradient id="vig" cx=".5" cy=".5" r=".75"><stop offset=".62" stop-color="#000" stop-opacity="0"/><stop offset="1" stop-color="#000" stop-opacity=".38"/></radialGradient></defs><rect width="480" height="360" fill="url(#sky)"/><rect width="480" height="360" fill="url(#glow)"/><path d="M0 276 Q 120 236 240 268 T 480 256 V 360 H 0 Z" fill="#2e6b45"/><rect x="210" y="160" width="44" height="140" rx="14" fill="#7a4a2b" stroke="#221a44" stroke-width="6" stroke-linejoin="round" stroke-linecap="round"/><circle cx="232" cy="130" r="70" fill="#2e7d4f" stroke="#221a44" stroke-width="6" stroke-linejoin="round" stroke-linecap="round"/><circle cx="180" cy="160" r="42" fill="#3f9d5f" stroke="#221a44" stroke-width="5" stroke-linejoin="round" stroke-linecap="round"/><circle cx="290" cy="156" r="46" fill="#3f9d5f" stroke="#221a44" stroke-width="5" stroke-linejoin="round" stroke-linecap="round"/><g transform="rotate(180 100 300)"><ellipse cx="100" cy="300" rx="10" ry="16" fill="#f7e2b0"/><circle cx="100" cy="280" r="4" fill="#f7e2b0"/></g><g transform="rotate(180 170 300)"><ellipse cx="170" cy="300" rx="10" ry="16" fill="#f7e2b0"/><circle cx="170" cy="280" r="4" fill="#f7e2b0"/></g><g transform="rotate(180 240 300)"><ellipse cx="240" cy="300" rx="10" ry="16" fill="#f7e2b0"/><circle cx="240" cy="280" r="4" fill="#f7e2b0"/></g><g transform="rotate(180 310 300)"><ellipse cx="310" cy="300" rx="10" ry="16" fill="#f7e2b0"/><circle cx="310" cy="280" r="4" fill="#f7e2b0"/></g><path d="M380 220 q-8 -30 12 -44 q0 16 12 20 q4 -18 18 -24 q-4 22 8 30 q-14 30 -50 18 Z" fill="#ff7a2f" stroke="#221a44" stroke-width="5" stroke-linejoin="round" stroke-linecap="round"/><rect width="480" height="360" fill="url(#vig)"/><rect x="7" y="7" width="466" height="346" rx="24" fill="none" stroke="#ffffff" stroke-opacity=".25" stroke-width="4"/></svg>