<svg xmlns="http://www.w3.org/2000/svg" viewBox="0 0 480 360"><defs><linearGradient id="sky" x1="0" y1="0" x2="0" y2="1"><stop offset="0" stop-color="#ffd280"/><stop offset="1" stop-color="#ffefb0"/></linearGradient><radialGradient id="glow" cx=".5" cy=".42" r=".6"><stop offset="0" stop-color="#fff2c9" stop-opacity=".35"/><stop offset="1" stop-color="#fff2c9" stop-opacity="0"/></radialGradient><radialGradient id="vig" cx=".5" cy=".5" r=".75"><stop offset=".62" stop-color="#000" stop-opacity="0"/><stop offset="1" stop-color="#000" stop-opacity=".38"/></radialGradient></defs><rect width="480" height="360" fill="url(#sky)"/><rect width="480" height="360" fill="url(#glow)"/><path d="M0 276 Q 120 236 240 268 T 480 256 V 360 H 0 Z" fill="#c9a86b"/><g fill="#ffffff" opacity=".95"><ellipse cx="90" cy="60" rx="41.4" ry="18.0"/><circle cx="72.0" cy="49.2" r="14.4"/><circle cx="97.2" cy="45.6" r="18.0"/></g><path d="M200 310 v-80 M200 230 l-40 -56 M200 230 l40 -56" fill="none" stroke="#221a44" stroke-width="12" stroke-linejoin="round" stroke-linecap="round"/><path d="M156 168 q44 24 88 0" fill="none" stroke="#c2543a" stroke-width="8" stroke-linecap="round"/><circle cx="300" cy="120" r="14" fill="#b8b8d0" stroke="#221a44" stroke-width="5" stroke-linejoin="round" stroke-linecap="round"/><g stroke="#fff" stroke-width="5" stroke-linecap="round" opacity=".8"><line x1="250" y1="140" x2="276" y2="130"/><line x1="240" y1="160" x2="264" y2="150"/></g><ellipse cx="90" cy="308" rx="10" ry="7" fill="#d8d8ea" stroke="#221a44" stroke-width="3"/><ellipse cx="118" cy="308" rx="10" ry="7" fill="#d8d8ea" stroke="#221a44" stroke-width="3"/><ellipse cx="146" cy="308" rx="10" ry="7" fill="#d8d8ea" stroke="#221a44" stroke-width="3"/><ellipse cx="174" cy="308" rx="10" ry="7" fill="#d8d8ea" stroke="#221a44" stroke-width="3"/><rect width="480" height="360" fill="url(#vig)"/><rect x="7" y="7" width="466" height="346" rx="24" fill="none" stroke="#ffffff" stroke-opacity=".25" stroke-width="4"/></svg>