<svg xmlns="http://www.w3.org/2000/svg" viewBox="0 0 480 360"><defs><linearGradient id="sky" x1="0" y1="0" x2="0" y2="1"><stop offset="0" stop-color="#8fb8ff"/><stop offset="1" stop-color="#d6e6ff"/></linearGradient><radialGradient id="glow" cx=".5" cy=".42" r=".6"><stop offset="0" stop-color="#ffffff" stop-opacity=".35"/><stop offset="1" stop-color="#ffffff" stop-opacity="0"/></radialGradient><radialGradient id="vig" cx=".5" cy=".5" r=".75"><stop offset=".62" stop-color="#000" stop-opacity="0"/><stop offset="1" stop-color="#000" stop-opacity=".38"/></radialGradient></defs><rect width="480" height="360" fill="url(#sky)"/><rect width="480" height="360" fill="url(#glow)"/><path d="M0 276 Q 120 236 240 268 T 480 256 V 360 H 0 Z" fill="#9fd8b0"/><g fill="#ffffff" opacity=".95"><ellipse cx="390" cy="60" rx="36.800000000000004" ry="16.0"/><circle cx="374.0" cy="50.4" r="12.8"/><circle cx="396.4" cy="47.2" r="16.0"/></g><g fill="#ffd9a0"><path d="M140 300 v-90 q0 -16 13 -16 t13 16 v-12 q0 -16 13 -16 t13 16 v10 q0 -14 12 -14 t12 14 v18 q0 -12 11 -12 t11 14 v72 q0 30 -85 30 q-13 -10 -13 -30 Z" stroke="#221a44" stroke-width="6" stroke-linejoin="round"/><path d="M300 306 v-56 q0 -11 9 -11 t9 11 v-8 q0 -11 9 -11 t9 11 v7 q0 -9 8 -9 t8 10 v12 q0 -8 7 -8 t8 10 v44 q0 20 -58 20 q-9 -6 -9 -22 Z" stroke="#221a44" stroke-width="5" stroke-linejoin="round"/></g><path d="M250 140 q-16 -18 -32 -3 q-12 12 32 42 q44 -30 32 -42 q-16 -15 -32 3 Z" fill="#ff6b8a" stroke="#221a44" stroke-width="5" stroke-linejoin="round" stroke-linecap="round"/><rect width="480" height="360" fill="url(#vig)"/><rect x="7" y="7" width="466" height="346" rx="24" fill="none" stroke="#ffffff" stroke-opacity=".25" stroke-width="4"/></svg>