<svg xmlns="http://www.w3.org/2000/svg" viewBox="0 0 480 360"><defs><linearGradient id="sky" x1="0" y1="0" x2="0" y2="1"><stop offset="0" stop-color="#3a2f78"/><stop offset="1" stop-color="#6a4bb0"/></linearGradient><radialGradient id="glow" cx=".5" cy=".42" r=".6"><stop offset="0" stop-color="#ffd98a" stop-opacity=".35"/><stop offset="1" stop-color="#ffd98a" stop-opacity="0"/></radialGradient><radialGradient id="vig" cx=".5" cy=".5" r=".75"><stop offset=".62" stop-color="#000" stop-opacity="0"/><stop offset="1" stop-color="#000" stop-opacity=".38"/></radialGradient></defs><rect width="480" height="360" fill="url(#sky)"/><rect width="480" height="360" fill="url(#glow)"/><path d="M0 276 Q 120 236 240 268 T 480 256 V 360 H 0 Z" fill="#2a2258"/><circle cx="294" cy="151" r="1.4" fill="#fff" opacity=".85"/><circle cx="453" cy="118" r="2.4" fill="#fff" opacity=".85"/><circle cx="180" cy="37" r="3.4" fill="#fff" opacity=".85"/><circle cx="51" cy="70" r="1.4" fill="#fff" opacity=".85"/><circle cx="314" cy="151" r="2.4" fill="#fff" opacity=".85"/><path d="M240 84 q70 26 118 20 q10 110 -50 160 q-38 32 -68 44 q-30 -12 -68 -44 q-60 -50 -50 -160 q48 6 118 -20 Z" fill="#d8a86b" stroke="#221a44" stroke-width="8" stroke-linejoin="round" stroke-linecap="round"/><path d="M240 112 q52 20 88 16 q6 84 -38 122 q-28 24 -50 34 q-22 -10 -50 -34 q-44 -38 -38 -122 q36 4 88 -16 Z" fill="#eec394" stroke="#221a44" stroke-width="4" stroke-linejoin="round" stroke-linecap="round"/><rect x="196" y="70" width="88" height="26" rx="4" fill="#bfe6ff" opacity=".85" transform="rotate(-6 240 83)" stroke="#221a44" stroke-width="3"/><path d="M240 152 l16 34 38 4 -28 26 8 38 -34 -19 -34 19 8 -38 -28 -26 38 -4 Z" fill="#ffcf5c" stroke="#221a44" stroke-width="5" stroke-linejoin="round" stroke-linecap="round"/><g transform="rotate(-10 96 262)"><path d="M56 262 q40 -34 80 0 Z" fill="#9aa7b8" stroke="#221a44" stroke-width="5" stroke-linejoin="round" stroke-linecap="round"/><rect x="48" y="258" width="96" height="14" rx="7" fill="#7d8a9b" stroke="#221a44" stroke-width="4" stroke-linejoin="round" stroke-linecap="round"/></g><rect width="480" height="360" fill="url(#vig)"/><rect x="7" y="7" width="466" height="346" rx="24" fill="none" stroke="#ffffff" stroke-opacity=".25" stroke-width="4"/></svg>