<svg xmlns="http://www.w3.org/2000/svg" viewBox="0 0 480 360"><defs><linearGradient id="sky" x1="0" y1="0" x2="0" y2="1"><stop offset="0" stop-color="#241d55"/><stop offset="1" stop-color="#4a3f8c"/></linearGradient><radialGradient id="glow" cx=".5" cy=".42" r=".6"><stop offset="0" stop-color="#ffd98a" stop-opacity=".35"/><stop offset="1" stop-color="#ffd98a" stop-opacity="0"/></radialGradient><radialGradient id="vig" cx=".5" cy=".5" r=".75"><stop offset=".62" stop-color="#000" stop-opacity="0"/><stop offset="1" stop-color="#000" stop-opacity=".38"/></radialGradient></defs><rect width="480" height="360" fill="url(#sky)"/><rect width="480" height="360" fill="url(#glow)"/><path d="M0 276 Q 120 236 240 268 T 480 256 V 360 H 0 Z" fill="#274a2e"/><circle cx="294" cy="151" r="1.4" fill="#fff" opacity=".85"/><circle cx="453" cy="118" r="2.4" fill="#fff" opacity=".85"/><circle cx="180" cy="37" r="3.4" fill="#fff" opacity=".85"/><circle cx="51" cy="70" r="1.4" fill="#fff" opacity=".85"/><circle cx="314" cy="151" r="2.4" fill="#fff" opacity=".85"/><circle cx="153" cy="118" r="3.4" fill="#fff" opacity=".85"/><circle cx="280" cy="37" r="1.4" fill="#fff" opacity=".85"/><circle cx="404" cy="56" r="24" fill="#ffe9b0"/><circle cx="394" cy="50" r="6" fill="#f4d47f"/><circle cx="413" cy="65" r="4" fill="#f4d47f"/><path d="M200 220 l18 38 42 5 -30 29 8 42 -38 -21 -38 21 8 -42 -30 -29 42 -5 Z" fill="#ffd254" stroke="#221a44" stroke-width="6" stroke-linejoin="round" stroke-linecap="round"/><circle cx="192" cy="266" r="4" fill="#221a44"/><circle cx="212" cy="266" r="4" fill="#221a44"/><path d="M194 280 q8 7 16 0" fill="none" stroke="#221a44" stroke-width="4" stroke-linejoin="round" stroke-linecap="round"/><g transform="rotate(18 350 240)"><line x1="330" y1="140" x2="330" y2="330" stroke="#221a44" stroke-width="7" stroke-linejoin="round" stroke-linecap="round"/><line x1="372" y1="140" x2="372" y2="330" stroke="#221a44" stroke-width="7" stroke-linejoin="round" stroke-linecap="round"/><line x1="330" y1="160" x2="372" y2="160" stroke="#221a44" stroke-width="6"/><line x1="330" y1="194" x2="372" y2="194" stroke="#221a44" stroke-width="6"/><line x1="330" y1="228" x2="372" y2="228" stroke="#221a44" stroke-width="6"/><line x1="330" y1="262" x2="372" y2="262" stroke="#221a44" stroke-width="6"/><line x1="330" y1="296" x2="372" y2="296" stroke="#221a44" stroke-width="6"/></g><rect width="480" height="360" fill="url(#vig)"/><rect x="7" y="7" width="466" height="346" rx="24" fill="none" stroke="#ffffff" stroke-opacity=".25" stroke-width="4"/></svg>