<svg xmlns="http://www.w3.org/2000/svg" viewBox="0 0 480 360"><defs><linearGradient id="sky" x1="0" y1="0" x2="0" y2="1"><stop offset="0" stop-color="#1f1b4d"/><stop offset="1" stop-color="#443a85"/></linearGradient><radialGradient id="glow" cx=".5" cy=".42" r=".6"><stop offset="0" stop-color="#ffd98a" stop-opacity=".35"/><stop offset="1" stop-color="#ffd98a" stop-opacity="0"/></radialGradient><radialGradient id="vig" cx=".5" cy=".5" r=".75"><stop offset=".62" stop-color="#000" stop-opacity="0"/><stop offset="1" stop-color="#000" stop-opacity=".38"/></radialGradient></defs><rect width="480" height="360" fill="url(#sky)"/><rect width="480" height="360" fill="url(#glow)"/><path d="M0 276 Q 120 236 240 268 T 480 256 V 360 H 0 Z" fill="#181542"/><circle cx="294" cy="151" r="1.4" fill="#fff" opacity=".85"/><circle cx="453" cy="118" r="2.4" fill="#fff" opacity=".85"/><circle cx="180" cy="37" r="3.4" fill="#fff" opacity=".85"/><circle cx="51" cy="70" r="1.4" fill="#fff" opacity=".85"/><circle cx="314" cy="151" r="2.4" fill="#fff" opacity=".85"/><circle cx="153" cy="118" r="3.4" fill="#fff" opacity=".85"/><rect x="96" y="252" width="150" height="30" rx="8" fill="#ff6b8a" stroke="#221a44" stroke-width="6" stroke-linejoin="round" stroke-linecap="round"/><rect x="110" y="222" width="150" height="30" rx="8" fill="#5ca8e1" stroke="#221a44" stroke-width="6" stroke-linejoin="round" stroke-linecap="round"/><rect x="88" y="192" width="150" height="30" rx="8" fill="#ffcf5c" stroke="#221a44" stroke-width="6" stroke-linejoin="round" stroke-linecap="round"/><path d="M312 268 V172 q0 -46 46 -46 t46 46 v96 l-16 -12 -15 12 -15 -12 -15 12 -15 -12 Z" fill="#ffffff" stroke="#221a44" stroke-width="6" stroke-linejoin="round" stroke-linecap="round"/><circle cx="344" cy="176" r="6" fill="#221a44"/><circle cx="374" cy="176" r="6" fill="#221a44"/><ellipse cx="359" cy="196" rx="8" ry="10" fill="#221a44"/><g fill="#fff" opacity=".9"><rect x="270" y="300" width="8" height="8" rx="2" transform="rotate(0 274 304)"/><rect x="288" y="308" width="8" height="8" rx="2" transform="rotate(20 292 304)"/><rect x="306" y="316" width="8" height="8" rx="2" transform="rotate(40 310 304)"/><rect x="324" y="300" width="8" height="8" rx="2" transform="rotate(60 328 304)"/><rect x="342" y="308" width="8" height="8" rx="2" transform="rotate(80 346 304)"/></g><rect width="480" height="360" fill="url(#vig)"/><rect x="7" y="7" width="466" height="346" rx="24" fill="none" stroke="#ffffff" stroke-opacity=".25" stroke-width="4"/></svg>