<svg xmlns="http://www.w3.org/2000/svg" viewBox="0 0 480 360"><defs><linearGradient id="sky" x1="0" y1="0" x2="0" y2="1"><stop offset="0" stop-color="#232a68"/><stop offset="1" stop-color="#4a3f9d"/></linearGradient><radialGradient id="glow" cx=".5" cy=".42" r=".6"><stop offset="0" stop-color="#ffd98a" stop-opacity=".35"/><stop offset="1" stop-color="#ffd98a" stop-opacity="0"/></radialGradient><radialGradient id="vig" cx=".5" cy=".5" r=".75"><stop offset=".62" stop-color="#000" stop-opacity="0"/><stop offset="1" stop-color="#000" stop-opacity=".38"/></radialGradient></defs><rect width="480" height="360" fill="url(#sky)"/><rect width="480" height="360" fill="url(#glow)"/><path d="M0 276 Q 120 236 240 268 T 480 256 V 360 H 0 Z" fill="#1e4e7e"/><circle cx="294" cy="151" r="1.4" fill="#fff" opacity=".85"/><circle cx="453" cy="118" r="2.4" fill="#fff" opacity=".85"/><circle cx="180" cy="37" r="3.4" fill="#fff" opacity=".85"/><circle cx="51" cy="70" r="1.4" fill="#fff" opacity=".85"/><circle cx="314" cy="151" r="2.4" fill="#fff" opacity=".85"/><circle cx="153" cy="118" r="3.4" fill="#fff" opacity=".85"/><rect x="0" y="250" width="480" height="110" fill="#1e4e7e"/><path d="M0 256 q60 14 120 0 t120 0 t120 0 t120 0" fill="none" stroke="#5ca8e1" stroke-width="6" stroke-linecap="round"/><path d="M210 250 L226 120 h28 L270 250 Z" fill="#fff" stroke="#221a44" stroke-width="6" stroke-linejoin="round" stroke-linecap="round"/><path d="M214 220 h52 M220 180 h40" stroke="#e23b3b" stroke-width="16"/><rect x="222" y="92" width="36" height="30" rx="6" fill="#ffd254" stroke="#221a44" stroke-width="5" stroke-linejoin="round" stroke-linecap="round"/><path d="M258 100 L420 60 L420 140 Z" fill="#ffd254" opacity=".5"/><path d="M222 100 L60 66 L60 140 Z" fill="#ffd254" opacity=".35"/><path d="M90 268 q30 14 60 0 q-8 18 -30 18 t-30 -18 Z" fill="#7a4a2b" stroke="#221a44" stroke-width="5" stroke-linejoin="round" stroke-linecap="round"/><line x1="120" y1="268" x2="120" y2="238" stroke="#221a44" stroke-width="4" stroke-linejoin="round" stroke-linecap="round"/><path d="M120 238 h22 l-8 8 8 8 h-22 Z" fill="#fff" stroke="#221a44" stroke-width="3"/><rect width="480" height="360" fill="url(#vig)"/><rect x="7" y="7" width="466" height="346" rx="24" fill="none" stroke="#ffffff" stroke-opacity=".25" stroke-width="4"/></svg>