<svg xmlns="http://www.w3.org/2000/svg" viewBox="0 0 480 360"><defs><linearGradient id="sky" x1="0" y1="0" x2="0" y2="1"><stop offset="0" stop-color="#8fb8ff"/><stop offset="1" stop-color="#d6e6ff"/></linearGradient><radialGradient id="glow" cx=".5" cy=".42" r=".6"><stop offset="0" stop-color="#ffffff" stop-opacity=".35"/><stop offset="1" stop-color="#ffffff" stop-opacity="0"/></radialGradient><radialGradient id="vig" cx=".5" cy=".5" r=".75"><stop offset=".62" stop-color="#000" stop-opacity="0"/><stop offset="1" stop-color="#000" stop-opacity=".38"/></radialGradient></defs><rect width="480" height="360" fill="url(#sky)"/><rect width="480" height="360" fill="url(#glow)"/><path d="M0 276 Q 120 236 240 268 T 480 256 V 360 H 0 Z" fill="#a3d8b8"/><g><path d="M120 210 q-4 40 -8 60" fill="none" stroke="#221a44" stroke-width="4" stroke-linejoin="round" stroke-linecap="round"/><ellipse cx="122" cy="176" rx="34" ry="42" fill="#5ca8e1" stroke="#221a44" stroke-width="6" stroke-linejoin="round" stroke-linecap="round"/></g><g><path d="M392 200 q4 44 8 64" fill="none" stroke="#221a44" stroke-width="4" stroke-linejoin="round" stroke-linecap="round"/><ellipse cx="390" cy="166" rx="30" ry="38" fill="#8fd06b" stroke="#221a44" stroke-width="6" stroke-linejoin="round" stroke-linecap="round"/></g><path d="M162 210 q0 -96 94 -96 t94 96" fill="none" stroke="#221a44" stroke-width="16" stroke-linejoin="round" stroke-linecap="round"/><rect x="140" y="200" width="52" height="76" rx="22" fill="#7c6bd8" stroke="#221a44" stroke-width="6" stroke-linejoin="round" stroke-linecap="round"/><rect x="320" y="200" width="52" height="76" rx="22" fill="#7c6bd8" stroke="#221a44" stroke-width="6" stroke-linejoin="round" stroke-linecap="round"/><path d="M256 236 q-20 -22 -38 -2 q-14 16 38 50 q52 -34 38 -50 q-18 -20 -38 2 Z" fill="#ff6b8a" stroke="#221a44" stroke-width="5" stroke-linejoin="round" stroke-linecap="round"/><circle cx="50" cy="44" r="4" fill="#ffcf5c"/><circle cx="108" cy="60" r="4" fill="#ff6b8a"/><circle cx="166" cy="76" r="4" fill="#5ce1c9"/><circle cx="224" cy="92" r="4" fill="#5ca8e1"/><circle cx="282" cy="44" r="4" fill="#ffcf5c"/><circle cx="340" cy="60" r="4" fill="#ff9d54"/><circle cx="398" cy="76" r="4" fill="#8fd06b"/><circle cx="456" cy="92" r="4" fill="#c86bb8"/><rect width="480" height="360" fill="url(#vig)"/><rect x="7" y="7" width="466" height="346" rx="24" fill="none" stroke="#ffffff" stroke-opacity=".25" stroke-width="4"/></svg>