<svg xmlns="http://www.w3.org/2000/svg" viewBox="0 0 480 360"><defs><linearGradient id="sky" x1="0" y1="0" x2="0" y2="1"><stop offset="0" stop-color="#155e8e"/><stop offset="1" stop-color="#0b3a63"/></linearGradient><radialGradient id="glow" cx=".5" cy=".42" r=".6"><stop offset="0" stop-color="#7fd2ff" stop-opacity=".35"/><stop offset="1" stop-color="#7fd2ff" stop-opacity="0"/></radialGradient><radialGradient id="vig" cx=".5" cy=".5" r=".75"><stop offset=".62" stop-color="#000" stop-opacity="0"/><stop offset="1" stop-color="#000" stop-opacity=".38"/></radialGradient></defs><rect width="480" height="360" fill="url(#sky)"/><rect width="480" height="360" fill="url(#glow)"/><path d="M0 276 Q 120 236 240 268 T 480 256 V 360 H 0 Z" fill="#0d2f52"/><circle cx="60" cy="40" r="5" fill="#bfe9ff" opacity=".6"/><circle cx="128" cy="66" r="8" fill="#bfe9ff" opacity=".6"/><circle cx="196" cy="92" r="11" fill="#bfe9ff" opacity=".6"/><circle cx="264" cy="40" r="5" fill="#bfe9ff" opacity=".6"/><circle cx="332" cy="66" r="8" fill="#bfe9ff" opacity=".6"/><circle cx="400" cy="92" r="11" fill="#bfe9ff" opacity=".6"/><g><ellipse cx="230" cy="196" rx="130" ry="66" fill="#ffcf5c" stroke="#221a44" stroke-width="6" stroke-linejoin="round" stroke-linecap="round"/><rect x="196" y="106" width="66" height="40" rx="12" fill="#ffcf5c" stroke="#221a44" stroke-width="6" stroke-linejoin="round" stroke-linecap="round"/><line x1="262" y1="112" x2="262" y2="84" stroke="#221a44" stroke-width="8" stroke-linejoin="round" stroke-linecap="round"/><circle cx="276" cy="82" r="10" fill="#ff6b8a" stroke="#221a44" stroke-width="5" stroke-linejoin="round" stroke-linecap="round"/><circle cx="180" cy="196" r="20" fill="#bfe9ff" stroke="#221a44" stroke-width="5" stroke-linejoin="round" stroke-linecap="round"/><circle cx="240" cy="196" r="20" fill="#bfe9ff" stroke="#221a44" stroke-width="5" stroke-linejoin="round" stroke-linecap="round"/><circle cx="300" cy="196" r="20" fill="#bfe9ff" stroke="#221a44" stroke-width="5" stroke-linejoin="round" stroke-linecap="round"/><path d="M356 176 q34 20 0 44 Z" fill="#ff9d54" stroke="#221a44" stroke-width="5" stroke-linejoin="round" stroke-linecap="round"/></g><path d="M30 340 q10 -80 60 -90 q40 -8 44 28 q2 26 -22 24" fill="none" stroke="#c86bb8" stroke-width="18" stroke-linecap="round"/><g fill="#e9a3dd"><circle cx="52" cy="318" r="5"/><circle cx="68" cy="296" r="5"/><circle cx="84" cy="274" r="5"/><circle cx="100" cy="252" r="5"/></g><path d="M420 348 q-14 -40 8 -74 q16 30 -8 74" fill="#2e9e8f"/><rect width="480" height="360" fill="url(#vig)"/><rect x="7" y="7" width="466" height="346" rx="24" fill="none" stroke="#ffffff" stroke-opacity=".25" stroke-width="4"/></svg>