<svg xmlns="http://www.w3.org/2000/svg" viewBox="0 0 480 360"><defs><linearGradient id="sky" x1="0" y1="0" x2="0" y2="1"><stop offset="0" stop-color="#4a3f9d"/><stop offset="1" stop-color="#7c5ad1"/></linearGradient><radialGradient id="glow" cx=".5" cy=".42" r=".6"><stop offset="0" stop-color="#ffd98a" stop-opacity=".35"/><stop offset="1" stop-color="#ffd98a" stop-opacity="0"/></radialGradient><radialGradient id="vig" cx=".5" cy=".5" r=".75"><stop offset=".62" stop-color="#000" stop-opacity="0"/><stop offset="1" stop-color="#000" stop-opacity=".38"/></radialGradient></defs><rect width="480" height="360" fill="url(#sky)"/><rect width="480" height="360" fill="url(#glow)"/><path d="M0 276 Q 120 236 240 268 T 480 256 V 360 H 0 Z" fill="#332a6e"/><path d="M268 40 L172 196 h56 L188 330 L332 156 h-62 L316 40 Z" fill="#ffd254" stroke="#221a44" stroke-width="8" stroke-linejoin="round" stroke-linecap="round"/><g transform="rotate(-8 350 282)"><path d="M292 288 q2 -26 30 -26 q20 0 34 14 q16 16 44 18 q18 2 16 18 h-124 Z" fill="#ff6b8a" stroke="#221a44" stroke-width="6" stroke-linejoin="round" stroke-linecap="round"/><rect x="288" y="308" width="132" height="14" rx="7" fill="#fff" stroke="#221a44" stroke-width="5" stroke-linejoin="round" stroke-linecap="round"/><path d="M312 276 l10 12 M330 270 l10 12" stroke="#fff" stroke-width="5" stroke-linecap="round"/></g><g stroke="#fff" stroke-width="7" stroke-linecap="round" opacity=".85"><line x1="60" y1="240" x2="150" y2="240"/><line x1="40" y1="268" x2="120" y2="268"/><line x1="70" y1="296" x2="160" y2="296"/></g><rect width="480" height="360" fill="url(#vig)"/><rect x="7" y="7" width="466" height="346" rx="24" fill="none" stroke="#ffffff" stroke-opacity=".25" stroke-width="4"/></svg>