<svg xmlns="http://www.w3.org/2000/svg" viewBox="0 0 480 360"><defs><linearGradient id="sky" x1="0" y1="0" x2="0" y2="1"><stop offset="0" stop-color="#ffd280"/><stop offset="1" stop-color="#ffefb0"/></linearGradient><radialGradient id="glow" cx=".5" cy=".42" r=".6"><stop offset="0" stop-color="#fff2c9" stop-opacity=".35"/><stop offset="1" stop-color="#fff2c9" stop-opacity="0"/></radialGradient><radialGradient id="vig" cx=".5" cy=".5" r=".75"><stop offset=".62" stop-color="#000" stop-opacity="0"/><stop offset="1" stop-color="#000" stop-opacity=".38"/></radialGradient></defs><rect width="480" height="360" fill="url(#sky)"/><rect width="480" height="360" fill="url(#glow)"/><path d="M0 276 Q 120 236 240 268 T 480 256 V 360 H 0 Z" fill="#2f86c9"/><g fill="#ffffff" opacity=".95"><ellipse cx="90" cy="60" rx="41.4" ry="18.0"/><circle cx="72.0" cy="49.2" r="14.4"/><circle cx="97.2" cy="45.6" r="18.0"/></g><rect x="0" y="252" width="480" height="108" fill="#2f86c9"/><ellipse cx="240" cy="268" rx="170" ry="42" fill="#f2d494" stroke="#221a44" stroke-width="6" stroke-linejoin="round" stroke-linecap="round"/><path d="M170 258 L228 130 h24 L310 258 Z" fill="#a4674b" stroke="#221a44" stroke-width="6" stroke-linejoin="round" stroke-linecap="round"/><path d="M214 160 h52" stroke="#7c4a33" stroke-width="8" stroke-linecap="round"/><g fill="#e9e2f7" opacity=".95"><ellipse cx="240" cy="102" rx="34.5" ry="15.0"/><circle cx="225.0" cy="93.0" r="12.0"/><circle cx="246.0" cy="90.0" r="15.0"/></g><text x="240" y="112" font-family="sans-serif" font-size="28" font-weight="bold" text-anchor="middle" fill="#221a44">atchim!</text><path d="M368 258 q6 -60 -12 -92" fill="none" stroke="#221a44" stroke-width="9" stroke-linejoin="round" stroke-linecap="round"/><g fill="#3f9d5f" stroke="#221a44" stroke-width="5" stroke-linejoin="round" stroke-linecap="round"><path d="M356 166 q-40 -18 -64 8 q36 4 64 -8"/><path d="M356 166 q10 -40 44 -46 q-12 34 -44 46"/><path d="M356 166 q42 -12 62 16 q-38 6 -62 -16"/></g><rect width="480" height="360" fill="url(#vig)"/><rect x="7" y="7" width="466" height="346" rx="24" fill="none" stroke="#ffffff" stroke-opacity=".25" stroke-width="4"/></svg>