<svg xmlns="http://www.w3.org/2000/svg" viewBox="0 0 480 360"><defs><linearGradient id="sky" x1="0" y1="0" x2="0" y2="1"><stop offset="0" stop-color="#232a68"/><stop offset="1" stop-color="#4a3f9d"/></linearGradient><radialGradient id="glow" cx=".5" cy=".42" r=".6"><stop offset="0" stop-color="#ffd98a" stop-opacity=".35"/><stop offset="1" stop-color="#ffd98a" stop-opacity="0"/></radialGradient><radialGradient id="vig" cx=".5" cy=".5" r=".75"><stop offset=".62" stop-color="#000" stop-opacity="0"/><stop offset="1" stop-color="#000" stop-opacity=".38"/></radialGradient></defs><rect width="480" height="360" fill="url(#sky)"/><rect width="480" height="360" fill="url(#glow)"/><path d="M0 276 Q 120 236 240 268 T 480 256 V 360 H 0 Z" fill="#1e4e7e"/><circle cx="294" cy="151" r="1.4" fill="#fff" opacity=".85"/><circle cx="453" cy="118" r="2.4" fill="#fff" opacity=".85"/><circle cx="180" cy="37" r="3.4" fill="#fff" opacity=".85"/><circle cx="51" cy="70" r="1.4" fill="#fff" opacity=".85"/><circle cx="314" cy="151" r="2.4" fill="#fff" opacity=".85"/><rect x="0" y="190" width="480" height="170" fill="#1e4e7e"/><path d="M0 196 q60 14 120 0 t120 0 t120 0 t120 0" fill="none" stroke="#5ca8e1" stroke-width="6" stroke-linecap="round"/><g><path d="M60 270 q80 -70 220 -40 q40 10 60 40 q-20 30 -60 40 q-140 30 -220 -40 Z" fill="#4a6a9d" stroke="#221a44" stroke-width="6" stroke-linejoin="round" stroke-linecap="round"/><path d="M340 270 l60 -36 v72 Z" fill="#4a6a9d" stroke="#221a44" stroke-width="6" stroke-linejoin="round" stroke-linecap="round"/><circle cx="130" cy="252" r="12" fill="#fff"/><circle cx="133" cy="254" r="6" fill="#221a44"/><path d="M96 282 q30 18 70 12" fill="none" stroke="#221a44" stroke-width="5" stroke-linejoin="round" stroke-linecap="round"/></g><path d="M200 156 q26 12 52 0 q-6 16 -26 16 t-26 -16 Z" fill="#a4674b" stroke="#221a44" stroke-width="5" stroke-linejoin="round" stroke-linecap="round"/><line x1="226" y1="156" x2="226" y2="128" stroke="#221a44" stroke-width="4" stroke-linejoin="round" stroke-linecap="round"/><path d="M226 128 h20 l-7 7 7 7 h-20 Z" fill="#fff" stroke="#221a44" stroke-width="3"/><rect width="480" height="360" fill="url(#vig)"/><rect x="7" y="7" width="466" height="346" rx="24" fill="none" stroke="#ffffff" stroke-opacity=".25" stroke-width="4"/></svg>