<svg xmlns="http://www.w3.org/2000/svg" viewBox="0 0 480 360"><defs><linearGradient id="sky" x1="0" y1="0" x2="0" y2="1"><stop offset="0" stop-color="#ffd280"/><stop offset="1" stop-color="#ffefb0"/></linearGradient><radialGradient id="glow" cx=".5" cy=".42" r=".6"><stop offset="0" stop-color="#fff2c9" stop-opacity=".35"/><stop offset="1" stop-color="#fff2c9" stop-opacity="0"/></radialGradient><radialGradient id="vig" cx=".5" cy=".5" r=".75"><stop offset=".62" stop-color="#000" stop-opacity="0"/><stop offset="1" stop-color="#000" stop-opacity=".38"/></radialGradient></defs><rect width="480" height="360" fill="url(#sky)"/><rect width="480" height="360" fill="url(#glow)"/><path d="M0 276 Q 120 236 240 268 T 480 256 V 360 H 0 Z" fill="#c98d4f"/><g fill="#ffffff" opacity=".95"><ellipse cx="100" cy="54" rx="36.800000000000004" ry="16.0"/><circle cx="84.0" cy="44.4" r="12.8"/><circle cx="106.4" cy="41.2" r="16.0"/></g><circle cx="240" cy="190" r="92" fill="#ff9d54" stroke="#221a44" stroke-width="6" stroke-linejoin="round" stroke-linecap="round"/><circle cx="240" cy="190" r="62" fill="#ffcf5c" stroke="#221a44" stroke-width="6" stroke-linejoin="round" stroke-linecap="round"/><circle cx="220" cy="178" r="7" fill="#221a44"/><circle cx="260" cy="178" r="7" fill="#221a44"/><ellipse cx="240" cy="204" rx="12" ry="9" fill="#a4674b" stroke="#221a44" stroke-width="4" stroke-linejoin="round" stroke-linecap="round"/><path d="M240 213 q0 10 -14 12 M240 213 q0 10 14 12" fill="none" stroke="#221a44" stroke-width="4" stroke-linejoin="round" stroke-linecap="round"/><path d="M196 160 q-8 -18 8 -26 M284 160 q8 -18 -8 -26" fill="none" stroke="#221a44" stroke-width="5" stroke-linejoin="round" stroke-linecap="round"/><g><ellipse cx="352" cy="272" rx="26" ry="18" fill="#b8b8d0" stroke="#221a44" stroke-width="5" stroke-linejoin="round" stroke-linecap="round"/><circle cx="376" cy="262" r="11" fill="#b8b8d0" stroke="#221a44" stroke-width="5" stroke-linejoin="round" stroke-linecap="round"/><circle cx="380" cy="260" r="2.5" fill="#221a44"/><circle cx="370" cy="252" r="6" fill="#d8d8ea" stroke="#221a44" stroke-width="4" stroke-linejoin="round" stroke-linecap="round"/><path d="M326 276 q-18 6 -24 -6" fill="none" stroke="#221a44" stroke-width="4" stroke-linejoin="round" stroke-linecap="round"/></g><rect width="480" height="360" fill="url(#vig)"/><rect x="7" y="7" width="466" height="346" rx="24" fill="none" stroke="#ffffff" stroke-opacity=".25" stroke-width="4"/></svg>