<svg xmlns="http://www.w3.org/2000/svg" viewBox="0 0 480 360"><defs><linearGradient id="sky" x1="0" y1="0" x2="0" y2="1"><stop offset="0" stop-color="#ffd280"/><stop offset="1" stop-color="#ffefb0"/></linearGradient><radialGradient id="glow" cx=".5" cy=".42" r=".6"><stop offset="0" stop-color="#fff2c9" stop-opacity=".35"/><stop offset="1" stop-color="#fff2c9" stop-opacity="0"/></radialGradient><radialGradient id="vig" cx=".5" cy=".5" r=".75"><stop offset=".62" stop-color="#000" stop-opacity="0"/><stop offset="1" stop-color="#000" stop-opacity=".38"/></radialGradient></defs><rect width="480" height="360" fill="url(#sky)"/><rect width="480" height="360" fill="url(#glow)"/><path d="M0 276 Q 120 236 240 268 T 480 256 V 360 H 0 Z" fill="#3f9d5f"/><g fill="#ffffff" opacity=".95"><ellipse cx="110" cy="58" rx="41.4" ry="18.0"/><circle cx="92.0" cy="47.2" r="14.4"/><circle cx="117.2" cy="43.6" r="18.0"/></g><line x1="410" y1="300" x2="410" y2="160" stroke="#221a44" stroke-width="7" stroke-linejoin="round" stroke-linecap="round"/><rect x="410" y="160" width="14" height="14" fill="#221a44"/><rect x="424" y="160" width="14" height="14" fill="#fff"/><rect x="438" y="160" width="14" height="14" fill="#221a44"/><rect x="410" y="174" width="14" height="14" fill="#fff"/><rect x="424" y="174" width="14" height="14" fill="#221a44"/><rect x="438" y="174" width="14" height="14" fill="#fff"/><rect x="410" y="188" width="14" height="14" fill="#221a44"/><rect x="424" y="188" width="14" height="14" fill="#fff"/><rect x="438" y="188" width="14" height="14" fill="#221a44"/><g><ellipse cx="180" cy="270" rx="70" ry="42" fill="#2e9e5f" stroke="#221a44" stroke-width="6" stroke-linejoin="round" stroke-linecap="round"/><path d="M120 276 q-20 -4 -26 8 q10 12 30 6 Z" fill="#8fd06b" stroke="#221a44" stroke-width="5" stroke-linejoin="round" stroke-linecap="round"/><circle cx="252" cy="258" r="22" fill="#8fd06b" stroke="#221a44" stroke-width="5" stroke-linejoin="round" stroke-linecap="round"/><circle cx="258" cy="252" r="4" fill="#221a44"/><path d="M150 250 q30 -24 62 0 M160 292 v16 M210 292 v16" fill="none" stroke="#221a44" stroke-width="5" stroke-linejoin="round" stroke-linecap="round"/></g><g transform="rotate(-14 90 180)"><ellipse cx="80" cy="170" rx="12" ry="34" fill="#e8b88a" stroke="#221a44" stroke-width="5" stroke-linejoin="round" stroke-linecap="round"/><ellipse cx="104" cy="166" rx="12" ry="34" fill="#e8b88a" stroke="#221a44" stroke-width="5" stroke-linejoin="round" stroke-linecap="round"/></g><text x="60" y="220" font-family="sans-serif" font-size="22" font-weight="bold" fill="#fff" opacity=".8">z z</text><rect width="480" height="360" fill="url(#vig)"/><rect x="7" y="7" width="466" height="346" rx="24" fill="none" stroke="#ffffff" stroke-opacity=".25" stroke-width="4"/></svg>