<svg xmlns="http://www.w3.org/2000/svg" viewBox="0 0 480 360"><defs><linearGradient id="sky" x1="0" y1="0" x2="0" y2="1"><stop offset="0" stop-color="#2a3272"/><stop offset="1" stop-color="#5a4bb0"/></linearGradient><radialGradient id="glow" cx=".5" cy=".42" r=".6"><stop offset="0" stop-color="#ffd98a" stop-opacity=".35"/><stop offset="1" stop-color="#ffd98a" stop-opacity="0"/></radialGradient><radialGradient id="vig" cx=".5" cy=".5" r=".75"><stop offset=".62" stop-color="#000" stop-opacity="0"/><stop offset="1" stop-color="#000" stop-opacity=".38"/></radialGradient></defs><rect width="480" height="360" fill="url(#sky)"/><rect width="480" height="360" fill="url(#glow)"/><path d="M0 276 Q 120 236 240 268 T 480 256 V 360 H 0 Z" fill="#20255c"/><circle cx="294" cy="151" r="1.4" fill="#fff" opacity=".85"/><circle cx="453" cy="118" r="2.4" fill="#fff" opacity=".85"/><circle cx="180" cy="37" r="3.4" fill="#fff" opacity=".85"/><circle cx="51" cy="70" r="1.4" fill="#fff" opacity=".85"/><circle cx="314" cy="151" r="2.4" fill="#fff" opacity=".85"/><circle cx="153" cy="118" r="3.4" fill="#fff" opacity=".85"/><line x1="60" y1="120" x2="420" y2="120" stroke="#221a44" stroke-width="7" stroke-linejoin="round" stroke-linecap="round"/><path d="M110 120 l-24 96 q40 20 80 0 l-24 -96 Z" fill="#ff6b8a" stroke="#221a44" stroke-width="6" stroke-linejoin="round" stroke-linecap="round"/><path d="M224 120 l-24 96 q40 20 80 0 l-24 -96 Z" fill="#ffcf5c" stroke="#221a44" stroke-width="6" stroke-linejoin="round" stroke-linecap="round"/><path d="M338 120 l-24 96 q40 20 80 0 l-24 -96 Z" fill="#5ce1c9" stroke="#221a44" stroke-width="6" stroke-linejoin="round" stroke-linecap="round"/><path d="M256 138 l-18 34 h14 l-10 30 26 -38 h-14 l14 -26 Z" fill="#fff" stroke="#221a44" stroke-width="3"/><g><rect x="70" y="268" width="70" height="52" rx="8" fill="#584a8f" stroke="#221a44" stroke-width="5" stroke-linejoin="round" stroke-linecap="round"/><path d="M60 268 l45 -30 45 30 Z" fill="#ff9d54" stroke="#221a44" stroke-width="5" stroke-linejoin="round" stroke-linecap="round"/><rect x="94" y="286" width="20" height="20" fill="#ffd254"/></g><g><rect x="190" y="268" width="70" height="52" rx="8" fill="#584a8f" stroke="#221a44" stroke-width="5" stroke-linejoin="round" stroke-linecap="round"/><path d="M180 268 l45 -30 45 30 Z" fill="#ff9d54" stroke="#221a44" stroke-width="5" stroke-linejoin="round" stroke-linecap="round"/><rect x="214" y="286" width="20" height="20" fill="#ffd254"/></g><g><rect x="310" y="268" width="70" height="52" rx="8" fill="#584a8f" stroke="#221a44" stroke-width="5" stroke-linejoin="round" stroke-linecap="round"/><path d="M300 268 l45 -30 45 30 Z" fill="#ff9d54" stroke="#221a44" stroke-width="5" stroke-linejoin="round" stroke-linecap="round"/><rect x="334" y="286" width="20" height="20" fill="#ffd254"/></g><rect width="480" height="360" fill="url(#vig)"/><rect x="7" y="7" width="466" height="346" rx="24" fill="none" stroke="#ffffff" stroke-opacity=".25" stroke-width="4"/></svg>