<svg xmlns="http://www.w3.org/2000/svg" viewBox="0 0 480 360"><defs><linearGradient id="sky" x1="0" y1="0" x2="0" y2="1"><stop offset="0" stop-color="#1c2350"/><stop offset="1" stop-color="#3f3f7d"/></linearGradient><radialGradient id="glow" cx=".5" cy=".42" r=".6"><stop offset="0" stop-color="#ffd98a" stop-opacity=".35"/><stop offset="1" stop-color="#ffd98a" stop-opacity="0"/></radialGradient><radialGradient id="vig" cx=".5" cy=".5" r=".75"><stop offset=".62" stop-color="#000" stop-opacity="0"/><stop offset="1" stop-color="#000" stop-opacity=".38"/></radialGradient></defs><rect width="480" height="360" fill="url(#sky)"/><rect width="480" height="360" fill="url(#glow)"/><path d="M0 276 Q 120 236 240 268 T 480 256 V 360 H 0 Z" fill="#161b3d"/><circle cx="294" cy="151" r="1.4" fill="#fff" opacity=".85"/><circle cx="453" cy="118" r="2.4" fill="#fff" opacity=".85"/><circle cx="180" cy="37" r="3.4" fill="#fff" opacity=".85"/><circle cx="51" cy="70" r="1.4" fill="#fff" opacity=".85"/><circle cx="314" cy="151" r="2.4" fill="#fff" opacity=".85"/><circle cx="153" cy="118" r="3.4" fill="#fff" opacity=".85"/><circle cx="280" cy="37" r="1.4" fill="#fff" opacity=".85"/><circle cx="311" cy="70" r="2.4" fill="#fff" opacity=".85"/><circle cx="374" cy="151" r="3.4" fill="#fff" opacity=".85"/><circle cx="396" cy="64" r="34" fill="#ffe9b0"/><circle cx="386" cy="58" r="6" fill="#f4d47f"/><circle cx="405" cy="73" r="4" fill="#f4d47f"/><path d="M188 96 h64 v104 q0 30 -28 44 l-38 20 q-26 12 -40 -10 q-12 -22 12 -36 l30 -18 V96 Z" fill="#fff" stroke="#221a44" stroke-width="6" stroke-linejoin="round" stroke-linecap="round"/><rect x="188" y="96" width="64" height="22" fill="#ff6b8a" stroke="#221a44" stroke-width="6" stroke-linejoin="round" stroke-linecap="round"/><rect x="188" y="138" width="64" height="16" fill="#5ce1c9" stroke="#221a44" stroke-width="4" stroke-linejoin="round" stroke-linecap="round"/><circle cx="322" cy="222" r="52" fill="#bfe6ff" fill-opacity=".55" stroke="#221a44" stroke-width="10" stroke-linejoin="round" stroke-linecap="round"/><line x1="358" y1="260" x2="404" y2="306" stroke="#221a44" stroke-width="14" stroke-linejoin="round" stroke-linecap="round"/><g fill="#ffb56b"><ellipse cx="100" cy="300" rx="10" ry="13"/><ellipse cx="134" cy="314" rx="10" ry="13"/><ellipse cx="168" cy="300" rx="10" ry="13"/><ellipse cx="202" cy="314" rx="10" ry="13"/></g><rect width="480" height="360" fill="url(#vig)"/><rect x="7" y="7" width="466" height="346" rx="24" fill="none" stroke="#ffffff" stroke-opacity=".25" stroke-width="4"/></svg>