<svg xmlns="http://www.w3.org/2000/svg" viewBox="0 0 480 360"><defs><linearGradient id="sky" x1="0" y1="0" x2="0" y2="1"><stop offset="0" stop-color="#2a4a78"/><stop offset="1" stop-color="#4a7ab0"/></linearGradient><radialGradient id="glow" cx=".5" cy=".42" r=".6"><stop offset="0" stop-color="#bfe6ff" stop-opacity=".35"/><stop offset="1" stop-color="#bfe6ff" stop-opacity="0"/></radialGradient><radialGradient id="vig" cx=".5" cy=".5" r=".75"><stop offset=".62" stop-color="#000" stop-opacity="0"/><stop offset="1" stop-color="#000" stop-opacity=".38"/></radialGradient></defs><rect width="480" height="360" fill="url(#sky)"/><rect width="480" height="360" fill="url(#glow)"/><path d="M0 276 Q 120 236 240 268 T 480 256 V 360 H 0 Z" fill="#22355e"/><circle cx="294" cy="151" r="1.4" fill="#fff" opacity=".85"/><circle cx="453" cy="118" r="2.4" fill="#fff" opacity=".85"/><circle cx="180" cy="37" r="3.4" fill="#fff" opacity=".85"/><circle cx="51" cy="70" r="1.4" fill="#fff" opacity=".85"/><circle cx="314" cy="151" r="2.4" fill="#fff" opacity=".85"/><circle cx="153" cy="118" r="3.4" fill="#fff" opacity=".85"/><circle cx="230" cy="180" r="92" fill="#bfe6ff" fill-opacity=".5" stroke="#221a44" stroke-width="12" stroke-linejoin="round" stroke-linecap="round"/><line x1="296" y1="248" x2="372" y2="324" stroke="#221a44" stroke-width="18" stroke-linejoin="round" stroke-linecap="round"/><g><circle cx="222" cy="150" r="18" fill="#ffd9a0" stroke="#221a44" stroke-width="5" stroke-linejoin="round" stroke-linecap="round"/><rect x="208" y="170" width="28" height="42" rx="10" fill="#8fd06b" stroke="#221a44" stroke-width="5" stroke-linejoin="round" stroke-linecap="round"/><path d="M236 174 q34 4 44 32 q-28 -6 -44 -12 Z" fill="#ff6b8a" stroke="#221a44" stroke-width="5" stroke-linejoin="round" stroke-linecap="round"/><path d="M212 212 l-5 24 M232 212 l5 24 M208 180 l-16 14 M236 180 l16 10" fill="none" stroke="#221a44" stroke-width="7" stroke-linejoin="round" stroke-linecap="round"/><path d="M214 144 q3 -3 6 0 M228 144 q3 -3 6 0" stroke="#221a44" stroke-width="3" fill="none" stroke-linecap="round"/><path d="M216 156 q6 5 12 0" stroke="#221a44" stroke-width="3" fill="none" stroke-linecap="round"/></g><g><rect x="66" y="272" width="26" height="48" rx="8" fill="#c86bb8" stroke="#221a44" stroke-width="5" stroke-linejoin="round" stroke-linecap="round"/><rect x="102" y="286" width="22" height="34" rx="8" fill="#5ce1c9" stroke="#221a44" stroke-width="5" stroke-linejoin="round" stroke-linecap="round"/><circle cx="79" cy="266" r="6" fill="#e9a3dd"/></g><rect width="480" height="360" fill="url(#vig)"/><rect x="7" y="7" width="466" height="346" rx="24" fill="none" stroke="#ffffff" stroke-opacity=".25" stroke-width="4"/></svg>