<svg xmlns="http://www.w3.org/2000/svg" viewBox="0 0 480 360"><defs><linearGradient id="sky" x1="0" y1="0" x2="0" y2="1"><stop offset="0" stop-color="#ff9a6b"/><stop offset="1" stop-color="#ffe0a3"/></linearGradient><radialGradient id="glow" cx=".5" cy=".42" r=".6"><stop offset="0" stop-color="#ffe9c9" stop-opacity=".35"/><stop offset="1" stop-color="#ffe9c9" stop-opacity="0"/></radialGradient><radialGradient id="vig" cx=".5" cy=".5" r=".75"><stop offset=".62" stop-color="#000" stop-opacity="0"/><stop offset="1" stop-color="#000" stop-opacity=".38"/></radialGradient></defs><rect width="480" height="360" fill="url(#sky)"/><rect width="480" height="360" fill="url(#glow)"/><path d="M0 276 Q 120 236 240 268 T 480 256 V 360 H 0 Z" fill="#3f7d52"/><g fill="#ffffff" opacity=".95"><ellipse cx="96" cy="70" rx="41.4" ry="18.0"/><circle cx="78.0" cy="59.2" r="14.4"/><circle cx="103.2" cy="55.6" r="18.0"/></g><g fill="#fff" opacity=".85"><ellipse cx="392" cy="96" rx="32.199999999999996" ry="14.0"/><circle cx="378.0" cy="87.6" r="11.2"/><circle cx="397.6" cy="84.8" r="14.0"/></g><path d="M60 300 L200 96 L300 300 Z" fill="#7c6bb8" stroke="#221a44" stroke-width="6" stroke-linejoin="round" stroke-linecap="round"/><path d="M200 96 L245 162 L215 158 L245 200 L165 200 L188 158 L162 160 Z" fill="#fff" stroke="#221a44" stroke-width="5" stroke-linejoin="round" stroke-linecap="round"/><path d="M240 300 L350 140 L440 300 Z" fill="#5e5099" stroke="#221a44" stroke-width="6" stroke-linejoin="round" stroke-linecap="round"/><path d="M350 140 L378 184 L322 184 Z" fill="#fff" stroke="#221a44" stroke-width="5" stroke-linejoin="round" stroke-linecap="round"/><line x1="200" y1="96" x2="200" y2="56" stroke="#221a44" stroke-width="6" stroke-linejoin="round" stroke-linecap="round"/><path d="M200 56 h44 l-12 12 12 12 h-44 Z" fill="#ff6b8a" stroke="#221a44" stroke-width="4" stroke-linejoin="round" stroke-linecap="round"/><circle cx="430" cy="52" r="26" fill="#ffcf5c" stroke="#221a44" stroke-width="5" stroke-linejoin="round" stroke-linecap="round"/><rect width="480" height="360" fill="url(#vig)"/><rect x="7" y="7" width="466" height="346" rx="24" fill="none" stroke="#ffffff" stroke-opacity=".25" stroke-width="4"/></svg>