<svg xmlns="http://www.w3.org/2000/svg" viewBox="0 0 480 360"><defs><linearGradient id="sky" x1="0" y1="0" x2="0" y2="1"><stop offset="0" stop-color="#191540"/><stop offset="1" stop-color="#2c2368"/></linearGradient><radialGradient id="glow" cx=".5" cy=".42" r=".6"><stop offset="0" stop-color="#ffd98a" stop-opacity=".35"/><stop offset="1" stop-color="#ffd98a" stop-opacity="0"/></radialGradient><radialGradient id="vig" cx=".5" cy=".5" r=".75"><stop offset=".62" stop-color="#000" stop-opacity="0"/><stop offset="1" stop-color="#000" stop-opacity=".38"/></radialGradient></defs><rect width="480" height="360" fill="url(#sky)"/><rect width="480" height="360" fill="url(#glow)"/><path d="M0 276 Q 120 236 240 268 T 480 256 V 360 H 0 Z" fill="#14202e"/><circle cx="294" cy="151" r="1.4" fill="#fff" opacity=".85"/><circle cx="453" cy="118" r="2.4" fill="#fff" opacity=".85"/><circle cx="180" cy="37" r="3.4" fill="#fff" opacity=".85"/><circle cx="51" cy="70" r="1.4" fill="#fff" opacity=".85"/><circle cx="314" cy="151" r="2.4" fill="#fff" opacity=".85"/><circle cx="153" cy="118" r="3.4" fill="#fff" opacity=".85"/><circle cx="280" cy="37" r="1.4" fill="#fff" opacity=".85"/><circle cx="311" cy="70" r="2.4" fill="#fff" opacity=".85"/><circle cx="374" cy="151" r="3.4" fill="#fff" opacity=".85"/><circle cx="133" cy="118" r="1.4" fill="#fff" opacity=".85"/><path d="M240 90 L300 170 h-30 L310 240 h-140 L210 170 h-30 Z" fill="#2e7d4f" stroke="#221a44" stroke-width="6" stroke-linejoin="round" stroke-linecap="round"/><rect x="222" y="240" width="36" height="30" rx="6" fill="#7a4a2b" stroke="#221a44" stroke-width="5" stroke-linejoin="round" stroke-linecap="round"/><path d="M240 60 l8 16 18 2 -13 12 3 18 -16 -9 -16 9 3 -18 -13 -12 18 -2 Z" fill="#ffd254" stroke="#221a44" stroke-width="4" stroke-linejoin="round" stroke-linecap="round"/><circle cx="220" cy="150" r="8" fill="#e23b3b" stroke="#221a44" stroke-width="3"/><circle cx="262" cy="140" r="8" fill="#ffd254" stroke="#221a44" stroke-width="3"/><circle cx="238" cy="190" r="8" fill="#5ca8e1" stroke="#221a44" stroke-width="3"/><circle cx="280" cy="200" r="8" fill="#e23b3b" stroke="#221a44" stroke-width="3"/><circle cx="200" cy="210" r="8" fill="#ffd254" stroke="#221a44" stroke-width="3"/><rect x="120" y="270" width="56" height="44" rx="8" fill="#e23b3b" stroke="#221a44" stroke-width="5" stroke-linejoin="round" stroke-linecap="round"/><line x1="148" y1="270" x2="148" y2="314" stroke="#ffd254" stroke-width="8"/><rect x="310" y="278" width="48" height="36" rx="8" fill="#5ca8e1" stroke="#221a44" stroke-width="5" stroke-linejoin="round" stroke-linecap="round"/><line x1="310" y1="296" x2="358" y2="296" stroke="#fff" stroke-width="8"/><path d="M60 80 q80 -20 160 -6" fill="none" stroke="#ffd254" stroke-width="5" stroke-dasharray="2 12" stroke-linecap="round"/><rect width="480" height="360" fill="url(#vig)"/><rect x="7" y="7" width="466" height="346" rx="24" fill="none" stroke="#ffffff" stroke-opacity=".25" stroke-width="4"/></svg>