<svg xmlns="http://www.w3.org/2000/svg" viewBox="0 0 480 360"><defs><linearGradient id="sky" x1="0" y1="0" x2="0" y2="1"><stop offset="0" stop-color="#241d55"/><stop offset="1" stop-color="#4a3f8c"/></linearGradient><radialGradient id="glow" cx=".5" cy=".42" r=".6"><stop offset="0" stop-color="#ffd98a" stop-opacity=".35"/><stop offset="1" stop-color="#ffd98a" stop-opacity="0"/></radialGradient><radialGradient id="vig" cx=".5" cy=".5" r=".75"><stop offset=".62" stop-color="#000" stop-opacity="0"/><stop offset="1" stop-color="#000" stop-opacity=".38"/></radialGradient></defs><rect width="480" height="360" fill="url(#sky)"/><rect width="480" height="360" fill="url(#glow)"/><path d="M0 276 Q 120 236 240 268 T 480 256 V 360 H 0 Z" fill="#274a2e"/><circle cx="294" cy="151" r="1.4" fill="#fff" opacity=".85"/><circle cx="453" cy="118" r="2.4" fill="#fff" opacity=".85"/><circle cx="180" cy="37" r="3.4" fill="#fff" opacity=".85"/><circle cx="51" cy="70" r="1.4" fill="#fff" opacity=".85"/><circle cx="314" cy="151" r="2.4" fill="#fff" opacity=".85"/><circle cx="153" cy="118" r="3.4" fill="#fff" opacity=".85"/><circle cx="280" cy="37" r="1.4" fill="#fff" opacity=".85"/><circle cx="311" cy="70" r="2.4" fill="#fff" opacity=".85"/><circle cx="396" cy="60" r="28" fill="#ffe9b0"/><circle cx="386" cy="54" r="6" fill="#f4d47f"/><circle cx="405" cy="69" r="4" fill="#f4d47f"/><g><ellipse cx="170" cy="264" rx="60" ry="40" fill="#fff" stroke="#221a44" stroke-width="6" stroke-linejoin="round" stroke-linecap="round"/><circle cx="132" cy="242" r="16" fill="#fff" stroke="#221a44" stroke-width="5" stroke-linejoin="round" stroke-linecap="round"/><circle cx="170" cy="232" r="18" fill="#fff" stroke="#221a44" stroke-width="5" stroke-linejoin="round" stroke-linecap="round"/><circle cx="208" cy="242" r="16" fill="#fff" stroke="#221a44" stroke-width="5" stroke-linejoin="round" stroke-linecap="round"/><circle cx="224" cy="266" r="20" fill="#3b3566" stroke="#221a44" stroke-width="5" stroke-linejoin="round" stroke-linecap="round"/><circle cx="230" cy="262" r="3.5" fill="#fff"/><path d="M140 300 v16 M200 300 v16" fill="none" stroke="#221a44" stroke-width="7" stroke-linejoin="round" stroke-linecap="round"/></g><g><line x1="360" y1="310" x2="360" y2="250" stroke="#221a44" stroke-width="7" stroke-linejoin="round" stroke-linecap="round"/><rect x="338" y="200" width="44" height="52" rx="10" fill="#ffd254" fill-opacity=".9" stroke="#221a44" stroke-width="5" stroke-linejoin="round" stroke-linecap="round"/><circle cx="360" cy="226" r="10" fill="#fff"/></g><path d="M280 150 q-12 -14 -24 -2 q-9 10 24 32 q33 -22 24 -32 q-12 -12 -24 2 Z" fill="#ff8fb0" stroke="#221a44" stroke-width="4" stroke-linejoin="round" stroke-linecap="round"/><rect width="480" height="360" fill="url(#vig)"/><rect x="7" y="7" width="466" height="346" rx="24" fill="none" stroke="#ffffff" stroke-opacity=".25" stroke-width="4"/></svg>