<svg xmlns="http://www.w3.org/2000/svg" viewBox="0 0 480 360"><defs><linearGradient id="sky" x1="0" y1="0" x2="0" y2="1"><stop offset="0" stop-color="#a8dcc0"/><stop offset="1" stop-color="#e7f6e2"/></linearGradient><radialGradient id="glow" cx=".5" cy=".42" r=".6"><stop offset="0" stop-color="#fff2c9" stop-opacity=".35"/><stop offset="1" stop-color="#fff2c9" stop-opacity="0"/></radialGradient><radialGradient id="vig" cx=".5" cy=".5" r=".75"><stop offset=".62" stop-color="#000" stop-opacity="0"/><stop offset="1" stop-color="#000" stop-opacity=".38"/></radialGradient></defs><rect width="480" height="360" fill="url(#sky)"/><rect width="480" height="360" fill="url(#glow)"/><path d="M0 276 Q 120 236 240 268 T 480 256 V 360 H 0 Z" fill="#7fbf8e"/><g fill="#ffffff" opacity=".95"><ellipse cx="96" cy="60" rx="41.4" ry="18.0"/><circle cx="78.0" cy="49.2" r="14.4"/><circle cx="103.2" cy="45.6" r="18.0"/></g><g fill="#ffffff" opacity=".95"><ellipse cx="390" cy="80" rx="32.199999999999996" ry="14.0"/><circle cx="376.0" cy="71.6" r="11.2"/><circle cx="395.6" cy="68.8" r="14.0"/></g><g><ellipse cx="200" cy="250" rx="80" ry="52" fill="#fff" stroke="#221a44" stroke-width="6" stroke-linejoin="round" stroke-linecap="round"/><circle cx="150" cy="222" r="20" fill="#fff" stroke="#221a44" stroke-width="5" stroke-linejoin="round" stroke-linecap="round"/><circle cx="200" cy="210" r="22" fill="#fff" stroke="#221a44" stroke-width="5" stroke-linejoin="round" stroke-linecap="round"/><circle cx="250" cy="222" r="20" fill="#fff" stroke="#221a44" stroke-width="5" stroke-linejoin="round" stroke-linecap="round"/><circle cx="272" cy="252" r="24" fill="#3b3566" stroke="#221a44" stroke-width="5" stroke-linejoin="round" stroke-linecap="round"/><circle cx="280" cy="248" r="4" fill="#fff"/><path d="M160 296 v20 M240 296 v20" fill="none" stroke="#221a44" stroke-width="7" stroke-linejoin="round" stroke-linecap="round"/></g><path d="M380 310 V150 q0 -34 -34 -30" fill="none" stroke="#221a44" stroke-width="10" stroke-linejoin="round" stroke-linecap="round"/><rect width="480" height="360" fill="url(#vig)"/><rect x="7" y="7" width="466" height="346" rx="24" fill="none" stroke="#ffffff" stroke-opacity=".25" stroke-width="4"/></svg>