<svg xmlns="http://www.w3.org/2000/svg" viewBox="0 0 480 360"><defs><linearGradient id="sky" x1="0" y1="0" x2="0" y2="1"><stop offset="0" stop-color="#7fd2e0"/><stop offset="1" stop-color="#d0f0f7"/></linearGradient><radialGradient id="glow" cx=".5" cy=".42" r=".6"><stop offset="0" stop-color="#ffffff" stop-opacity=".35"/><stop offset="1" stop-color="#ffffff" stop-opacity="0"/></radialGradient><radialGradient id="vig" cx=".5" cy=".5" r=".75"><stop offset=".62" stop-color="#000" stop-opacity="0"/><stop offset="1" stop-color="#000" stop-opacity=".38"/></radialGradient></defs><rect width="480" height="360" fill="url(#sky)"/><rect width="480" height="360" fill="url(#glow)"/><path d="M0 276 Q 120 236 240 268 T 480 256 V 360 H 0 Z" fill="#2f86c9"/><g fill="#ffffff" opacity=".95"><ellipse cx="380" cy="60" rx="36.800000000000004" ry="16.0"/><circle cx="364.0" cy="50.4" r="12.8"/><circle cx="386.4" cy="47.2" r="16.0"/></g><path d="M240 280 q-120 0 -130 -90 q40 26 60 10 q-16 -30 6 -60 q16 30 36 26 q-4 -34 28 -54 q32 20 28 54 q20 4 36 -26 q22 30 6 60 q20 16 60 -10 q-10 90 -130 90 Z" fill="#ffb6c9" stroke="#221a44" stroke-width="6" stroke-linejoin="round" stroke-linecap="round"/><path d="M150 282 h180 q-20 26 -90 26 t-90 -26 Z" fill="#e89aae" stroke="#221a44" stroke-width="5" stroke-linejoin="round" stroke-linecap="round"/><g><circle cx="240" cy="102" r="12" fill="#ffcf5c" stroke="#221a44" stroke-width="4"/><circle cx="254" cy="116" r="12" fill="#ffcf5c" stroke="#221a44" stroke-width="4"/><circle cx="240" cy="130" r="12" fill="#ffcf5c" stroke="#221a44" stroke-width="4"/><circle cx="226" cy="116" r="12" fill="#ffcf5c" stroke="#221a44" stroke-width="4"/><circle cx="240" cy="116" r="10" fill="#ff6b8a" stroke="#221a44" stroke-width="4" stroke-linejoin="round" stroke-linecap="round"/></g><rect width="480" height="360" fill="url(#vig)"/><rect x="7" y="7" width="466" height="346" rx="24" fill="none" stroke="#ffffff" stroke-opacity=".25" stroke-width="4"/></svg>