<svg xmlns="http://www.w3.org/2000/svg" viewBox="0 0 480 360"><defs><linearGradient id="sky" x1="0" y1="0" x2="0" y2="1"><stop offset="0" stop-color="#232a68"/><stop offset="1" stop-color="#4a3f9d"/></linearGradient><radialGradient id="glow" cx=".5" cy=".42" r=".6"><stop offset="0" stop-color="#ffd98a" stop-opacity=".35"/><stop offset="1" stop-color="#ffd98a" stop-opacity="0"/></radialGradient><radialGradient id="vig" cx=".5" cy=".5" r=".75"><stop offset=".62" stop-color="#000" stop-opacity="0"/><stop offset="1" stop-color="#000" stop-opacity=".38"/></radialGradient></defs><rect width="480" height="360" fill="url(#sky)"/><rect width="480" height="360" fill="url(#glow)"/><path d="M0 276 Q 120 236 240 268 T 480 256 V 360 H 0 Z" fill="#1b1f52"/><circle cx="294" cy="151" r="1.4" fill="#fff" opacity=".85"/><circle cx="453" cy="118" r="2.4" fill="#fff" opacity=".85"/><circle cx="180" cy="37" r="3.4" fill="#fff" opacity=".85"/><circle cx="51" cy="70" r="1.4" fill="#fff" opacity=".85"/><circle cx="314" cy="151" r="2.4" fill="#fff" opacity=".85"/><circle cx="153" cy="118" r="3.4" fill="#fff" opacity=".85"/><circle cx="280" cy="37" r="1.4" fill="#fff" opacity=".85"/><circle cx="311" cy="70" r="2.4" fill="#fff" opacity=".85"/><circle cx="374" cy="151" r="3.4" fill="#fff" opacity=".85"/><circle cx="240" cy="180" r="76" fill="#c86bb8" stroke="#221a44" stroke-width="6" stroke-linejoin="round" stroke-linecap="round"/><path d="M240 180 m-76 0 a76 76 0 0 1 76 -76" fill="none" stroke="#e9a3dd" stroke-width="18"/><ellipse cx="240" cy="188" rx="130" ry="26" fill="none" stroke="#ffcf5c" stroke-width="12" transform="rotate(-14 240 188)"/><path d="M90 260 q10 16 0 24 q-10 -8 0 -24" fill="#ff6b8a"/><path d="M140 290 q10 16 0 24 q-10 -8 0 -24" fill="#5ce1c9"/><path d="M370 270 q10 16 0 24 q-10 -8 0 -24" fill="#5ca8e1"/><path d="M410 240 q10 16 0 24 q-10 -8 0 -24" fill="#8fd06b"/><rect width="480" height="360" fill="url(#vig)"/><rect x="7" y="7" width="466" height="346" rx="24" fill="none" stroke="#ffffff" stroke-opacity=".25" stroke-width="4"/></svg>