<svg xmlns="http://www.w3.org/2000/svg" viewBox="0 0 480 360"><defs><linearGradient id="sky" x1="0" y1="0" x2="0" y2="1"><stop offset="0" stop-color="#a8dcc0"/><stop offset="1" stop-color="#e7f6e2"/></linearGradient><radialGradient id="glow" cx=".5" cy=".42" r=".6"><stop offset="0" stop-color="#fff2c9" stop-opacity=".35"/><stop offset="1" stop-color="#fff2c9" stop-opacity="0"/></radialGradient><radialGradient id="vig" cx=".5" cy=".5" r=".75"><stop offset=".62" stop-color="#000" stop-opacity="0"/><stop offset="1" stop-color="#000" stop-opacity=".38"/></radialGradient></defs><rect width="480" height="360" fill="url(#sky)"/><rect width="480" height="360" fill="url(#glow)"/><path d="M0 276 Q 120 236 240 268 T 480 256 V 360 H 0 Z" fill="#7fbf8e"/><g fill="#ffffff" opacity=".95"><ellipse cx="100" cy="60" rx="41.4" ry="18.0"/><circle cx="82.0" cy="49.2" r="14.4"/><circle cx="107.2" cy="45.6" r="18.0"/></g><g><path d="M180 300 q-10 -90 40 -130 q30 -24 62 -12 q28 12 30 48 q2 30 -18 44 q-30 20 -34 50 Z" fill="#c2854f" stroke="#221a44" stroke-width="6" stroke-linejoin="round" stroke-linecap="round"/><path d="M222 160 l-6 -34 22 24 Z" fill="#c2854f" stroke="#221a44" stroke-width="5" stroke-linejoin="round" stroke-linecap="round"/><path d="M262 154 l4 -34 16 30 Z" fill="#c2854f" stroke="#221a44" stroke-width="5" stroke-linejoin="round" stroke-linecap="round"/><circle cx="278" cy="212" r="6" fill="#221a44"/><ellipse cx="296" cy="248" rx="16" ry="12" fill="#eec394" stroke="#221a44" stroke-width="5" stroke-linejoin="round" stroke-linecap="round"/><circle cx="292" cy="246" r="3" fill="#221a44"/><circle cx="302" cy="246" r="3" fill="#221a44"/><path d="M212 168 q-24 40 -12 92" fill="none" stroke="#8a5a2b" stroke-width="12" stroke-linecap="round"/></g><g><circle cx="120" cy="250" r="26" fill="#ff6b8a" stroke="#221a44" stroke-width="5" stroke-linejoin="round" stroke-linecap="round"/><path d="M120 226 q2 -12 12 -16" fill="none" stroke="#221a44" stroke-width="4" stroke-linejoin="round" stroke-linecap="round"/><path d="M128 216 q14 -4 12 10 q-14 4 -12 -10" fill="#8fd06b" stroke="#221a44" stroke-width="4" stroke-linejoin="round" stroke-linecap="round"/></g><path d="M96 130 l10 20 13 -16 13 16 10 -20 3 28 h-46 Z" fill="#ffcf5c" stroke="#221a44" stroke-width="5" stroke-linejoin="round" stroke-linecap="round"/><rect width="480" height="360" fill="url(#vig)"/><rect x="7" y="7" width="466" height="346" rx="24" fill="none" stroke="#ffffff" stroke-opacity=".25" stroke-width="4"/></svg>