<svg xmlns="http://www.w3.org/2000/svg" viewBox="0 0 480 360"><defs><linearGradient id="sky" x1="0" y1="0" x2="0" y2="1"><stop offset="0" stop-color="#3d2472"/><stop offset="1" stop-color="#6b3fa8"/></linearGradient><radialGradient id="glow" cx=".5" cy=".42" r=".6"><stop offset="0" stop-color="#ffd98a" stop-opacity=".35"/><stop offset="1" stop-color="#ffd98a" stop-opacity="0"/></radialGradient><radialGradient id="vig" cx=".5" cy=".5" r=".75"><stop offset=".62" stop-color="#000" stop-opacity="0"/><stop offset="1" stop-color="#000" stop-opacity=".38"/></radialGradient></defs><rect width="480" height="360" fill="url(#sky)"/><rect width="480" height="360" fill="url(#glow)"/><path d="M0 276 Q 120 236 240 268 T 480 256 V 360 H 0 Z" fill="#2c1a54"/><circle cx="294" cy="151" r="1.4" fill="#fff" opacity=".85"/><circle cx="453" cy="118" r="2.4" fill="#fff" opacity=".85"/><circle cx="180" cy="37" r="3.4" fill="#fff" opacity=".85"/><circle cx="51" cy="70" r="1.4" fill="#fff" opacity=".85"/><circle cx="314" cy="151" r="2.4" fill="#fff" opacity=".85"/><circle cx="153" cy="118" r="3.4" fill="#fff" opacity=".85"/><circle cx="280" cy="37" r="1.4" fill="#fff" opacity=".85"/><rect x="60" y="140" width="80" height="160" rx="8" fill="#7c6bd8" stroke="#221a44" stroke-width="6" stroke-linejoin="round" stroke-linecap="round"/><path d="M50 140 l50 -46 50 46 Z" fill="#ff6b8a" stroke="#221a44" stroke-width="6" stroke-linejoin="round" stroke-linecap="round"/><rect x="86" y="200" width="28" height="40" rx="10" fill="#241c4a" stroke="#221a44" stroke-width="5" stroke-linejoin="round" stroke-linecap="round"/><g><ellipse cx="330" cy="200" rx="86" ry="56" fill="#5ce1c9" stroke="#221a44" stroke-width="6" stroke-linejoin="round" stroke-linecap="round"/><circle cx="356" cy="180" r="9" fill="#fff"/><circle cx="358" cy="182" r="4.5" fill="#221a44"/><path d="M400 216 q14 4 22 -4" fill="none" stroke="#221a44" stroke-width="5" stroke-linejoin="round" stroke-linecap="round"/><path d="M282 156 l-14 -30 26 12 Z" fill="#5ce1c9" stroke="#221a44" stroke-width="5" stroke-linejoin="round" stroke-linecap="round"/><path d="M330 152 l-10 -34 24 18 Z" fill="#5ce1c9" stroke="#221a44" stroke-width="5" stroke-linejoin="round" stroke-linecap="round"/><g fill="#e9e2f7" opacity=".9"><ellipse cx="430" cy="140" rx="23.0" ry="10.0"/><circle cx="420.0" cy="134.0" r="8.0"/><circle cx="434.0" cy="132.0" r="10.0"/></g></g><g transform="rotate(35 170 270)"><rect x="130" y="262" width="110" height="16" rx="8" fill="#9aa7b8" stroke="#221a44" stroke-width="5" stroke-linejoin="round" stroke-linecap="round"/><circle cx="128" cy="270" r="20" fill="none" stroke="#9aa7b8" stroke-width="14"/><circle cx="128" cy="270" r="20" fill="none" stroke="#221a44" stroke-width="4" stroke-linejoin="round" stroke-linecap="round"/></g><path d="M210 92 l12 24 16 -20 16 20 12 -24 4 34 h-56 Z" fill="#ffcf5c" stroke="#221a44" stroke-width="5" stroke-linejoin="round" stroke-linecap="round"/><rect width="480" height="360" fill="url(#vig)"/><rect x="7" y="7" width="466" height="346" rx="24" fill="none" stroke="#ffffff" stroke-opacity=".25" stroke-width="4"/></svg>