<svg xmlns="http://www.w3.org/2000/svg" viewBox="0 0 480 360"><defs><linearGradient id="sky" x1="0" y1="0" x2="0" y2="1"><stop offset="0" stop-color="#8fd06b"/><stop offset="1" stop-color="#d9f0a3"/></linearGradient><radialGradient id="glow" cx=".5" cy=".42" r=".6"><stop offset="0" stop-color="#f4ffc9" stop-opacity=".35"/><stop offset="1" stop-color="#f4ffc9" stop-opacity="0"/></radialGradient><radialGradient id="vig" cx=".5" cy=".5" r=".75"><stop offset=".62" stop-color="#000" stop-opacity="0"/><stop offset="1" stop-color="#000" stop-opacity=".38"/></radialGradient></defs><rect width="480" height="360" fill="url(#sky)"/><rect width="480" height="360" fill="url(#glow)"/><path d="M0 276 Q 120 236 240 268 T 480 256 V 360 H 0 Z" fill="#2e9e8f"/><g fill="#ffffff" opacity=".95"><ellipse cx="120" cy="54" rx="36.800000000000004" ry="16.0"/><circle cx="104.0" cy="44.4" r="12.8"/><circle cx="126.4" cy="41.2" r="16.0"/></g><rect x="0" y="200" width="480" height="160" fill="#2e9e8f"/><path d="M0 208 q60 14 120 0 t120 0 t120 0 t120 0" fill="none" stroke="#7fe0d2" stroke-width="6" stroke-linecap="round"/><g><ellipse cx="240" cy="252" rx="96" ry="34" fill="#4caf50" stroke="#221a44" stroke-width="6" stroke-linejoin="round" stroke-linecap="round"/><circle cx="196" cy="216" r="20" fill="#4caf50" stroke="#221a44" stroke-width="5" stroke-linejoin="round" stroke-linecap="round"/><circle cx="284" cy="216" r="20" fill="#4caf50" stroke="#221a44" stroke-width="5" stroke-linejoin="round" stroke-linecap="round"/><circle cx="196" cy="214" r="8" fill="#fff"/><circle cx="284" cy="214" r="8" fill="#fff"/><circle cx="198" cy="216" r="4" fill="#221a44"/><circle cx="286" cy="216" r="4" fill="#221a44"/><path d="M168 258 q72 40 144 0" fill="none" stroke="#221a44" stroke-width="7" stroke-linejoin="round" stroke-linecap="round"/><path d="M188 268 l10 12 10 -12 M240 276 l10 12 10 -12" fill="none" stroke="#fff" stroke-width="6" stroke-linecap="round"/></g><path d="M330 176 q60 26 110 6 q-16 30 -58 30 q-40 0 -52 -36 Z" fill="#ffcf5c" stroke="#221a44" stroke-width="6" stroke-linejoin="round" stroke-linecap="round"/><rect width="480" height="360" fill="url(#vig)"/><rect x="7" y="7" width="466" height="346" rx="24" fill="none" stroke="#ffffff" stroke-opacity=".25" stroke-width="4"/></svg>