<svg xmlns="http://www.w3.org/2000/svg" viewBox="0 0 480 360"><defs><linearGradient id="sky" x1="0" y1="0" x2="0" y2="1"><stop offset="0" stop-color="#9fc4ef"/><stop offset="1" stop-color="#dfeafc"/></linearGradient><radialGradient id="glow" cx=".5" cy=".42" r=".6"><stop offset="0" stop-color="#ffffff" stop-opacity=".35"/><stop offset="1" stop-color="#ffffff" stop-opacity="0"/></radialGradient><radialGradient id="vig" cx=".5" cy=".5" r=".75"><stop offset=".62" stop-color="#000" stop-opacity="0"/><stop offset="1" stop-color="#000" stop-opacity=".38"/></radialGradient></defs><rect width="480" height="360" fill="url(#sky)"/><rect width="480" height="360" fill="url(#glow)"/><path d="M0 276 Q 120 236 240 268 T 480 256 V 360 H 0 Z" fill="#a8cfe0"/><circle cx="428" cy="56" r="30" fill="#ffcf5c" stroke="#221a44" stroke-width="5" stroke-linejoin="round" stroke-linecap="round"/><g fill="#ffffff" opacity=".95"><ellipse cx="160" cy="72" rx="50.6" ry="22.0"/><circle cx="138.0" cy="58.8" r="17.6"/><circle cx="168.8" cy="54.4" r="22.0"/></g><path d="M118 118 q8 14 0 20 q-8 -6 0 -20" fill="#5ca8e1"/><path d="M148 118 q8 14 0 20 q-8 -6 0 -20" fill="#5ca8e1"/><path d="M178 118 q8 14 0 20 q-8 -6 0 -20" fill="#5ca8e1"/><path d="M208 118 q8 14 0 20 q-8 -6 0 -20" fill="#5ca8e1"/><path d="M238 118 q8 14 0 20 q-8 -6 0 -20" fill="#5ca8e1"/><path d="M240 150 q-110 0 -116 92 q30 -22 58 0 q30 -24 58 0 q30 -24 58 0 q28 -22 58 0 q-6 -92 -116 -92 Z" fill="#ff6b8a" stroke="#221a44" stroke-width="6" stroke-linejoin="round" stroke-linecap="round"/><line x1="240" y1="150" x2="240" y2="120" stroke="#221a44" stroke-width="6" stroke-linejoin="round" stroke-linecap="round"/><path d="M240 242 v56 q0 22 -22 22 t-22 -20" fill="none" stroke="#221a44" stroke-width="9" stroke-linejoin="round" stroke-linecap="round"/><circle cx="214" cy="196" r="5" fill="#221a44"/><circle cx="266" cy="196" r="5" fill="#221a44"/><path d="M218 214 q22 16 44 0" fill="none" stroke="#221a44" stroke-width="5" stroke-linejoin="round" stroke-linecap="round"/><g transform="rotate(5 400 268)"><rect x="360" y="230" width="82" height="76" rx="10" fill="#fff" stroke="#221a44" stroke-width="5" stroke-linejoin="round" stroke-linecap="round"/><rect x="370" y="242" width="20" height="16" rx="4" fill="#8fd06b"/><rect x="396" y="242" width="34" height="16" rx="4" fill="#e8e3fa"/><rect x="370" y="264" width="20" height="16" rx="4" fill="#ffcf5c"/><rect x="396" y="264" width="34" height="16" rx="4" fill="#e8e3fa"/><rect x="370" y="286" width="20" height="12" rx="4" fill="#5ca8e1"/><rect x="396" y="286" width="34" height="12" rx="4" fill="#e8e3fa"/></g><rect width="480" height="360" fill="url(#vig)"/><rect x="7" y="7" width="466" height="346" rx="24" fill="none" stroke="#ffffff" stroke-opacity=".25" stroke-width="4"/></svg>