<svg xmlns="http://www.w3.org/2000/svg" viewBox="0 0 480 360"><defs><linearGradient id="sky" x1="0" y1="0" x2="0" y2="1"><stop offset="0" stop-color="#a8dcc0"/><stop offset="1" stop-color="#e2f5d9"/></linearGradient><radialGradient id="glow" cx=".5" cy=".42" r=".6"><stop offset="0" stop-color="#ffffff" stop-opacity=".35"/><stop offset="1" stop-color="#ffffff" stop-opacity="0"/></radialGradient><radialGradient id="vig" cx=".5" cy=".5" r=".75"><stop offset=".62" stop-color="#000" stop-opacity="0"/><stop offset="1" stop-color="#000" stop-opacity=".38"/></radialGradient></defs><rect width="480" height="360" fill="url(#sky)"/><rect width="480" height="360" fill="url(#glow)"/><path d="M0 276 Q 120 236 240 268 T 480 256 V 360 H 0 Z" fill="#5e9e6f"/><g fill="#ffffff" opacity=".95"><ellipse cx="90" cy="52" rx="36.800000000000004" ry="16.0"/><circle cx="74.0" cy="42.4" r="12.8"/><circle cx="96.4" cy="39.2" r="16.0"/></g><g><ellipse cx="200" cy="240" rx="95" ry="60" fill="#8fd06b" stroke="#221a44" stroke-width="6" stroke-linejoin="round" stroke-linecap="round"/><path d="M262 210 q30 -50 22 -96 q-2 -24 24 -24 t24 26 q0 20 -16 24 q-6 46 -12 76 Z" fill="#8fd06b" stroke="#221a44" stroke-width="6" stroke-linejoin="round" stroke-linecap="round"/><path d="M300 96 l30 8 -26 12 Z" fill="#8fd06b" stroke="#221a44" stroke-width="5" stroke-linejoin="round" stroke-linecap="round"/><circle cx="298" cy="86" r="5" fill="#221a44"/><path d="M120 260 q-26 8 -40 28 M170 292 v24 M230 292 v24" fill="none" stroke="#221a44" stroke-width="10" stroke-linejoin="round" stroke-linecap="round"/><g fill="#5aa843"><path d="M150 196 l10 -14 10 14 Z"/><path d="M190 196 l10 -14 10 14 Z"/><path d="M230 196 l10 -14 10 14 Z"/><path d="M270 196 l10 -14 10 14 Z"/></g></g><text x="300" y="120" font-family="sans-serif" font-size="30" font-weight="bold" fill="#fff" transform="rotate(0 300 120)">♪</text><text x="336" y="98" font-family="sans-serif" font-size="30" font-weight="bold" fill="#fff" transform="rotate(14 336 98)">♪</text><text x="372" y="76" font-family="sans-serif" font-size="30" font-weight="bold" fill="#fff" transform="rotate(28 372 76)">♪</text><rect width="480" height="360" fill="url(#vig)"/><rect x="7" y="7" width="466" height="346" rx="24" fill="none" stroke="#ffffff" stroke-opacity=".25" stroke-width="4"/></svg>