<svg xmlns="http://www.w3.org/2000/svg" viewBox="0 0 480 360"><defs><linearGradient id="sky" x1="0" y1="0" x2="0" y2="1"><stop offset="0" stop-color="#232052"/><stop offset="1" stop-color="#4c4390"/></linearGradient><radialGradient id="glow" cx=".5" cy=".42" r=".6"><stop offset="0" stop-color="#ffd98a" stop-opacity=".35"/><stop offset="1" stop-color="#ffd98a" stop-opacity="0"/></radialGradient><radialGradient id="vig" cx=".5" cy=".5" r=".75"><stop offset=".62" stop-color="#000" stop-opacity="0"/><stop offset="1" stop-color="#000" stop-opacity=".38"/></radialGradient></defs><rect width="480" height="360" fill="url(#sky)"/><rect width="480" height="360" fill="url(#glow)"/><path d="M0 276 Q 120 236 240 268 T 480 256 V 360 H 0 Z" fill="#274a2e"/><circle cx="294" cy="151" r="1.4" fill="#fff" opacity=".85"/><circle cx="453" cy="118" r="2.4" fill="#fff" opacity=".85"/><circle cx="180" cy="37" r="3.4" fill="#fff" opacity=".85"/><circle cx="51" cy="70" r="1.4" fill="#fff" opacity=".85"/><circle cx="314" cy="151" r="2.4" fill="#fff" opacity=".85"/><circle cx="153" cy="118" r="3.4" fill="#fff" opacity=".85"/><circle cx="280" cy="37" r="1.4" fill="#fff" opacity=".85"/><circle cx="311" cy="70" r="2.4" fill="#fff" opacity=".85"/><circle cx="392" cy="66" r="40" fill="#ffe9b0"/><circle cx="382" cy="60" r="6" fill="#f4d47f"/><circle cx="401" cy="75" r="4" fill="#f4d47f"/><rect x="40" y="120" width="400" height="150" rx="14" fill="#6b5aa8" stroke="#221a44" stroke-width="6" stroke-linejoin="round" stroke-linecap="round"/><g opacity=".85"><g stroke="#221a44" stroke-width="15" stroke-linecap="round"><line x1="150" y1="258" x2="150" y2="190"/><line x1="106" y1="212" x2="194" y2="200"/></g><circle cx="150" cy="172" r="17" fill="#221a44"/><path d="M122 166 l28 -34 28 34 Z" fill="#221a44"/><path d="M118 168 h64" stroke="#221a44" stroke-width="9" stroke-linecap="round"/></g><g><line x1="332" y1="308" x2="332" y2="230" stroke="#221a44" stroke-width="8" stroke-linejoin="round" stroke-linecap="round"/><line x1="300" y1="252" x2="364" y2="252" stroke="#221a44" stroke-width="8" stroke-linejoin="round" stroke-linecap="round"/><circle cx="332" cy="218" r="20" fill="#ffd9a0" stroke="#221a44" stroke-width="6" stroke-linejoin="round" stroke-linecap="round"/><path d="M306 208 l26 -18 26 18 Z" fill="#ff9d54" stroke="#221a44" stroke-width="5" stroke-linejoin="round" stroke-linecap="round"/><circle cx="356" cy="238" r="8" fill="#ff6b8a" stroke="#221a44" stroke-width="4" stroke-linejoin="round" stroke-linecap="round"/></g><rect width="480" height="360" fill="url(#vig)"/><rect x="7" y="7" width="466" height="346" rx="24" fill="none" stroke="#ffffff" stroke-opacity=".25" stroke-width="4"/></svg>