<svg xmlns="http://www.w3.org/2000/svg" viewBox="0 0 480 360"><defs><linearGradient id="sky" x1="0" y1="0" x2="0" y2="1"><stop offset="0" stop-color="#8fd06b"/><stop offset="1" stop-color="#d9f0a3"/></linearGradient><radialGradient id="glow" cx=".5" cy=".42" r=".6"><stop offset="0" stop-color="#f4ffc9" stop-opacity=".35"/><stop offset="1" stop-color="#f4ffc9" stop-opacity="0"/></radialGradient><radialGradient id="vig" cx=".5" cy=".5" r=".75"><stop offset=".62" stop-color="#000" stop-opacity="0"/><stop offset="1" stop-color="#000" stop-opacity=".38"/></radialGradient></defs><rect width="480" height="360" fill="url(#sky)"/><rect width="480" height="360" fill="url(#glow)"/><path d="M0 276 Q 120 236 240 268 T 480 256 V 360 H 0 Z" fill="#57803f"/><g fill="#ffffff" opacity=".95"><ellipse cx="96" cy="52" rx="36.800000000000004" ry="16.0"/><circle cx="80.0" cy="42.4" r="12.8"/><circle cx="102.4" cy="39.2" r="16.0"/></g><path d="M140 230 h200 v80 q-100 18 -200 0 Z" fill="#a4674b" stroke="#221a44" stroke-width="6" stroke-linejoin="round" stroke-linecap="round"/><path d="M140 230 q100 -66 200 0 l-16 22 q-84 -50 -168 0 Z" fill="#c2854f" stroke="#221a44" stroke-width="6" stroke-linejoin="round" stroke-linecap="round"/><path d="M240 236 v-60" stroke="#221a44" stroke-width="8" stroke-linejoin="round" stroke-linecap="round"/><path d="M240 176 q-34 -8 -40 -40 q34 4 40 40 Z" fill="#3f9d5f" stroke="#221a44" stroke-width="5" stroke-linejoin="round" stroke-linecap="round"/><path d="M240 176 q34 -8 40 -40 q-34 4 -40 40 Z" fill="#8fd06b" stroke="#221a44" stroke-width="5" stroke-linejoin="round" stroke-linecap="round"/><ellipse cx="170" cy="300" rx="7" ry="10" fill="#ffcf5c" stroke="#221a44" stroke-width="3"/><ellipse cx="205" cy="308" rx="7" ry="10" fill="#ffcf5c" stroke="#221a44" stroke-width="3"/><ellipse cx="275" cy="306" rx="7" ry="10" fill="#ffcf5c" stroke="#221a44" stroke-width="3"/><ellipse cx="310" cy="298" rx="7" ry="10" fill="#ffcf5c" stroke="#221a44" stroke-width="3"/><rect width="480" height="360" fill="url(#vig)"/><rect x="7" y="7" width="466" height="346" rx="24" fill="none" stroke="#ffffff" stroke-opacity=".25" stroke-width="4"/></svg>