<svg xmlns="http://www.w3.org/2000/svg" viewBox="0 0 480 360"><defs><linearGradient id="sky" x1="0" y1="0" x2="0" y2="1"><stop offset="0" stop-color="#ffb25e"/><stop offset="1" stop-color="#ffe29a"/></linearGradient><radialGradient id="glow" cx=".5" cy=".42" r=".6"><stop offset="0" stop-color="#fff2c9" stop-opacity=".35"/><stop offset="1" stop-color="#fff2c9" stop-opacity="0"/></radialGradient><radialGradient id="vig" cx=".5" cy=".5" r=".75"><stop offset=".62" stop-color="#000" stop-opacity="0"/><stop offset="1" stop-color="#000" stop-opacity=".38"/></radialGradient></defs><rect width="480" height="360" fill="url(#sky)"/><rect width="480" height="360" fill="url(#glow)"/><path d="M0 276 Q 120 236 240 268 T 480 256 V 360 H 0 Z" fill="#3f9d5f"/><g fill="#fff" opacity=".9"><ellipse cx="120" cy="64" rx="46" ry="20"/><circle cx="100" cy="52" r="16"/><circle cx="128" cy="48" r="20"/></g><g fill="#fff" opacity=".8"><ellipse cx="360" cy="44" rx="36.800000000000004" ry="16.0"/><circle cx="344.0" cy="34.4" r="12.8"/><circle cx="366.4" cy="31.2" r="16.0"/></g><g transform="rotate(-4 240 186)"><rect x="110" y="96" width="260" height="180" rx="14" fill="#f7e2b0" stroke="#221a44" stroke-width="6" stroke-linejoin="round" stroke-linecap="round"/><path d="M150 220 q40 -50 90 -30 t90 -46" fill="none" stroke="#c2543a" stroke-width="7" stroke-dasharray="2 16" stroke-linecap="round"/><path d="M318 130 l26 26 M344 130 l-26 26" stroke="#c2543a" stroke-width="12" stroke-linecap="round"/><circle cx="156" cy="222" r="12" fill="#5ca8e1" stroke="#221a44" stroke-width="5" stroke-linejoin="round" stroke-linecap="round"/></g><line x1="72" y1="330" x2="128" y2="250" stroke="#221a44" stroke-width="10" stroke-linejoin="round" stroke-linecap="round"/><path d="M118 236 q26 -8 30 18 q-4 26 -30 18 q-12 -18 0 -36" fill="#9aa7b8" stroke="#221a44" stroke-width="6" stroke-linejoin="round" stroke-linecap="round"/><rect width="480" height="360" fill="url(#vig)"/><rect x="7" y="7" width="466" height="346" rx="24" fill="none" stroke="#ffffff" stroke-opacity=".25" stroke-width="4"/></svg>