<svg xmlns="http://www.w3.org/2000/svg" viewBox="0 0 480 360"><defs><linearGradient id="sky" x1="0" y1="0" x2="0" y2="1"><stop offset="0" stop-color="#3a2f78"/><stop offset="1" stop-color="#6a4bb0"/></linearGradient><radialGradient id="glow" cx=".5" cy=".42" r=".6"><stop offset="0" stop-color="#ffd98a" stop-opacity=".35"/><stop offset="1" stop-color="#ffd98a" stop-opacity="0"/></radialGradient><radialGradient id="vig" cx=".5" cy=".5" r=".75"><stop offset=".62" stop-color="#000" stop-opacity="0"/><stop offset="1" stop-color="#000" stop-opacity=".38"/></radialGradient></defs><rect width="480" height="360" fill="url(#sky)"/><rect width="480" height="360" fill="url(#glow)"/><path d="M0 276 Q 120 236 240 268 T 480 256 V 360 H 0 Z" fill="#2a2258"/><line x1="20" y1="70" x2="460" y2="70" stroke="#221a44" stroke-width="5" stroke-linejoin="round" stroke-linecap="round"/><path d="M40 70 l17 30 17 -30 Z" fill="#ff6b8a" stroke="#221a44" stroke-width="4"/><path d="M110 70 l17 30 17 -30 Z" fill="#ffcf5c" stroke="#221a44" stroke-width="4"/><path d="M180 70 l17 30 17 -30 Z" fill="#5ce1c9" stroke="#221a44" stroke-width="4"/><path d="M250 70 l17 30 17 -30 Z" fill="#5ca8e1" stroke="#221a44" stroke-width="4"/><path d="M320 70 l17 30 17 -30 Z" fill="#ff9d54" stroke="#221a44" stroke-width="4"/><path d="M390 70 l17 30 17 -30 Z" fill="#c86bb8" stroke="#221a44" stroke-width="4"/><path d="M240 120 q56 20 94 16 q8 88 -40 128 q-30 26 -54 36 q-24 -10 -54 -36 q-48 -40 -40 -128 q38 4 94 -16 Z" fill="#7c6bd8" stroke="#221a44" stroke-width="8" stroke-linejoin="round" stroke-linecap="round"/><path d="M240 170 q-18 -20 -36 -2 q-14 14 36 46 q50 -32 36 -46 q-18 -18 -36 2 Z" fill="#ffcf5c" stroke="#221a44" stroke-width="5" stroke-linejoin="round" stroke-linecap="round"/><g><circle cx="86" cy="286" r="22" fill="#ff9d54" stroke="#221a44" stroke-width="5" stroke-linejoin="round" stroke-linecap="round"/><path d="M72 270 l-6 -14 14 8 Z" fill="#ff9d54" stroke="#221a44" stroke-width="4" stroke-linejoin="round" stroke-linecap="round"/><path d="M100 270 l6 -14 -14 8 Z" fill="#ff9d54" stroke="#221a44" stroke-width="4" stroke-linejoin="round" stroke-linecap="round"/><circle cx="79" cy="284" r="3" fill="#221a44"/><circle cx="93" cy="284" r="3" fill="#221a44"/><path d="M80 294 q6 5 12 0" fill="none" stroke="#221a44" stroke-width="4" stroke-linejoin="round" stroke-linecap="round"/></g><rect width="480" height="360" fill="url(#vig)"/><rect x="7" y="7" width="466" height="346" rx="24" fill="none" stroke="#ffffff" stroke-opacity=".25" stroke-width="4"/></svg>