<svg xmlns="http://www.w3.org/2000/svg" viewBox="0 0 480 360"><defs><linearGradient id="sky" x1="0" y1="0" x2="0" y2="1"><stop offset="0" stop-color="#ff9a6b"/><stop offset="1" stop-color="#ffe0a3"/></linearGradient><radialGradient id="glow" cx=".5" cy=".42" r=".6"><stop offset="0" stop-color="#ffe9c9" stop-opacity=".35"/><stop offset="1" stop-color="#ffe9c9" stop-opacity="0"/></radialGradient><radialGradient id="vig" cx=".5" cy=".5" r=".75"><stop offset=".62" stop-color="#000" stop-opacity="0"/><stop offset="1" stop-color="#000" stop-opacity=".38"/></radialGradient></defs><rect width="480" height="360" fill="url(#sky)"/><rect width="480" height="360" fill="url(#glow)"/><path d="M0 276 Q 120 236 240 268 T 480 256 V 360 H 0 Z" fill="#3f7d52"/><path d="M290 280 L360 140 h26 L456 280 Z" fill="#a4674b" stroke="#221a44" stroke-width="6" stroke-linejoin="round" stroke-linecap="round"/><g fill="#cfc3f2" opacity=".9"><ellipse cx="376" cy="104" rx="32.199999999999996" ry="14.0"/><circle cx="362.0" cy="95.6" r="11.2"/><circle cx="381.6" cy="92.8" r="14.0"/></g><g><ellipse cx="90" cy="286" rx="52" ry="30" fill="#8fd06b" stroke="#221a44" stroke-width="6" stroke-linejoin="round" stroke-linecap="round"/><path d="M128 268 q16 -30 12 -58 q0 -14 15 -14 t15 16 q0 12 -11 14 q-3 24 -7 42 Z" fill="#8fd06b" stroke="#221a44" stroke-width="5" stroke-linejoin="round" stroke-linecap="round"/></g><g><ellipse cx="196" cy="296" rx="34" ry="20" fill="#ffcf5c" stroke="#221a44" stroke-width="5" stroke-linejoin="round" stroke-linecap="round"/><circle cx="224" cy="280" r="12" fill="#ffcf5c" stroke="#221a44" stroke-width="5" stroke-linejoin="round" stroke-linecap="round"/></g><g fill="#221a44"><circle cx="250" cy="318" r="4"/><circle cx="270" cy="318" r="4"/><circle cx="290" cy="318" r="4"/><circle cx="310" cy="318" r="4"/></g><circle cx="60" cy="60" r="24" fill="#ffcf5c" stroke="#221a44" stroke-width="5" stroke-linejoin="round" stroke-linecap="round"/><rect width="480" height="360" fill="url(#vig)"/><rect x="7" y="7" width="466" height="346" rx="24" fill="none" stroke="#ffffff" stroke-opacity=".25" stroke-width="4"/></svg>